<?xml version="1.0" encoding="utf-8"?><!DOCTYPE svg PUBLIC "-//W3C//DTD SVG 1.1//EN" "http://www.w3.org/Graphics/SVG/1.1/DTD/svg11.dtd"><svg width="64" height="54" viewBox="0 0 64 54" xmlns="http://www.w3.org/2000/svg" xmlns:xlink="http://www.w3.org/1999/xlink"><svg viewBox="0 0 15 17" style="background-color:#ffffff00" width="15" height="17" id="bin" x="49"><path d="M6 6H5v7h1V6zm2 0H7v7h1V6zm2 0H9v7h1V6zm2 9H3V4H1v13h13V4h-2v11zM10.34 1C9.742 1 9.26.6 9.26 0H5.74c0 .6-.483 1-1.08 1H0v2h15V1h-4.66z" fill="#263116"/></svg><svg viewBox="0 0 15 17" width="15" height="17" id="bin-hover" x="49" y="17"><path d="M6 6H5v7h1V6zm2 0H7v7h1V6zm2 0H9v7h1V6zm2 9H3V4H1v13h13V4h-2v11zM10.34 1C9.742 1 9.26.6 9.26 0H5.74c0 .6-.483 1-1.08 1H0v2h15V1h-4.66z" fill="red"/></svg><svg viewBox="0 0 17 16" width="17" height="16" id="empty-heart" y="38"><path d="M8.5 16C2.215 10 .448 7.792.065 5.53-.403 2.762 1.698 0 4.97 0 6.374 0 7.65.53 8.5 1.41 9.352.53 10.626 0 12.03 0c3.258 0 5.375 2.748 4.905 5.53C16.56 7.743 14.91 9.88 8.5 16zM4.97 1.624c-1.32 0-2.435.653-2.98 1.746C.595 6.17 3.737 9.01 8.5 13.693c4.78-4.7 7.9-7.53 6.51-10.323-.545-1.093-1.66-1.746-2.98-1.746-2.13 0-3.04 1.645-3.53 2.422-.462-.73-1.292-2.422-3.53-2.422z" fill="#263116"/></svg><svg viewBox="0 0 9 20" style="background-color:#ffffff00" width="9" height="20" id="facebook"><path d="M1.913 6.667h-2.08V10H1.5v10h4.167V10H9V6.667H5.913s-.417-1.26-.417-1.923c0-.796.576-1.24 1.34-1.24H9V0H6.23C3.256 0 1.497 1.448 1.497 3.974c0 2.2.417 2.693.417 2.693z" fill="#666"/></svg><svg viewBox="0 0 20 20" style="background-color:#ffffff00" width="20" height="20" id="gplus" x="9"><path d="M20 4.325h-2.652V7.03h-1.325V4.324H13.37v-1.35h2.653V.27h1.325v2.704H20v1.35zm-7.496 11.182c0 2.026-1.815 4.493-6.38 4.493C2.784 20 0 18.532 0 16.062c0-1.906 1.184-4.38 6.715-4.38-.822-.684-1.023-1.638-.52-2.671-3.24 0-4.898-1.94-4.898-4.406C1.297 2.194 3.057 0 6.644 0h5.747l-1.283 1.374h-1.51c1.066.622 1.632 1.903 1.632 3.314 0 1.296-.7 2.345-1.7 3.132-1.772 1.397-1.318 2.177.54 3.557 1.83 1.398 2.434 2.478 2.434 4.13zM8.92 4.777C8.65 2.7 7.326 1 5.777.952c-1.55-.047-2.587 1.54-2.32 3.615.267 2.074 1.74 3.523 3.29 3.57 1.547.047 2.44-1.288 2.17-3.362zm1.596 10.938c0-1.706-1.526-3.332-4.087-3.332-2.31-.026-4.265 1.487-4.265 3.24 0 1.79 1.667 3.28 3.975 3.28 2.95 0 4.376-1.4 4.376-3.188z" fill="#666"/></svg><svg viewBox="0 0 18 18" style="background-color:#ffffff00" width="18" height="18" id="history" x="19" y="20"><path d="M9.095 4.582v4.423h3.944v1.77H7.33V4.582h1.765zM8.518 0C6.068 0 3.67.984 2.05 2.58L.505 1.03-.5 6.542l5.502-1.006L3.438 3.97c1.266-1.24 3.17-2.004 5.08-2.004 3.877 0 7.02 3.15 7.02 7.034 0 3.885-3.143 7.034-7.02 7.034-3.866 0-7.002-3.13-7.02-7l-1.952.37C-.244 14.185 3.692 18 8.518 18c4.96 0 8.982-4.03 8.982-9s-4.02-9-8.982-9z" fill="#263113"/></svg><svg viewBox="0 0 19 18" style="background-color:#ffffff00" width="19" height="18" id="person" y="20"><path d="M16.117 13.572c-2.58-.596-4.98-1.118-3.818-3.313 3.54-6.685.937-10.26-2.8-10.26-3.81 0-6.348 3.712-2.8 10.258 1.198 2.21-1.293 2.73-3.817 3.314C.305 14.168.503 15.53.503 18h17.994c0-2.47.198-3.832-2.38-4.428z" fill="#263113"/></svg><svg viewBox="0 0 20 16" style="background-color:#ffffff00" width="20" height="16" id="twitter" x="29"><path d="M20 1.958c-.736.318-1.527.532-2.357.63.847-.496 1.498-1.28 1.804-2.212-.792.458-1.67.79-2.605.97C16.092.57 15.027.083 13.847.083 11.197.083 9.25 2.49 9.85 4.99 6.44 4.826 3.416 3.234 1.392.816.318 2.61.835 4.962 2.662 6.152c-.672-.02-1.305-.2-1.858-.5-.045 1.85 1.317 3.583 3.29 3.97-.577.152-1.21.187-1.852.068.522 1.588 2.037 2.743 3.833 2.776C4.35 13.783 2.177 14.37 0 14.12c1.816 1.135 3.973 1.797 6.29 1.797 7.618 0 11.922-6.27 11.663-11.89.8-.564 1.497-1.268 2.047-2.07z" fill="#666"/></svg></svg>