<svg xmlns="http://www.w3.org/2000/svg" viewBox="0 0 612 612"><path d="M581.992 410.673c13.115-34.642 20.03-70.85 20.03-107.774 0-165.51-134.718-301.01-301.01-301.01S0 137.39 0 302.9c0 91.592 40.77 173.207 105.493 228.66.784.785 1.568 1.57 3.065 2.282 52.32 43.124 119.32 70.067 192.453 70.067 39.276 0 77.766-7.7 113.905-22.31 20.813 17.676 47.757 28.51 77.765 28.51 66.217 0 119.32-53.886 119.32-119.32 0-30.863-11.547-59.375-30.008-80.117zM27.727 302.9C27.727 152 150.897 29.615 301.01 29.615S574.293 152.002 574.293 302.9c0 30.007-4.633 60.016-14.612 88.527-.783 0-.783-.784-1.567-.784-2.28-1.568-4.633-3.065-6.914-4.633-.785-.784-2.282-1.568-3.066-1.568-2.28-.784-3.85-2.28-6.13-3.065-.784-.784-2.28-.784-3.065-1.568-2.282-.785-5.418-2.282-7.7-3.066-.783 0-1.567-.784-1.567-.784-3.065-.784-6.914-1.568-9.98-2.28-.783 0-2.28-.785-3.064-.785-2.282-.784-5.418-.784-7.7-1.568h-3.064c-3.85 0-6.914-.784-10.763-.784-20.813 0-40.06 5.417-56.168 13.828-12.33-11.546-25.375-21.525-40.77-29.223 16.18-20.03 25.374-45.405 25.374-73.132 0-66.218-53.888-119.32-119.322-119.32S181.69 215.867 181.69 282.084c0 27.728 9.266 53.104 25.375 73.917C135.5 395.277 113.12 456.862 105.42 493c-47.684-49.254-77.693-116.256-77.693-190.1zm181.69-20.814c0-50.822 41.556-91.593 91.593-91.593s91.593 41.556 91.593 91.593-41.556 91.593-91.593 91.593-91.593-40.772-91.593-91.594zm91.594 293.312c-64.65 0-123.953-22.31-170.926-60.017 1.568-22.31 13.828-97.01 97.01-139.35 20.03 16.18 46.19 25.376 73.917 25.376s53.888-9.98 73.917-25.375c13.828 6.915 26.943 15.397 38.49 25.376-24.66 21.526-40.058 53.887-40.058 88.528 0 3.85 0 7.698.783 10.763v3.065c0 3.065.784 5.417 1.568 8.482 0 .784 0 1.568.785 2.28 1.568 7.7 3.85 14.613 6.914 21.527 1.567 3.066 3.064 6.915 4.632 9.98 0 0 0 .784.784.784 1.568 3.065 3.85 6.13 5.417 9.266v.784c.784.784.784 1.568 1.568 1.568-30.934 11.55-62.44 16.966-94.8 16.966zm191.67 6.914c-43.91 0-80.83-30.792-89.313-72.348v-.784c-.784-2.28-.784-4.633-.784-7.698v-1.568c0-3.065-.784-6.13-.784-9.266 0-50.822 40.77-91.593 91.592-91.593 3.065 0 6.13 0 9.266.784 1.568 0 2.28 0 3.85.783 1.567 0 3.848.784 5.416.784s3.065.784 4.633.784 3.065.785 3.85.785c1.567.784 3.064.784 4.632 1.568 1.567.784 2.28.784 3.848 1.568 1.568.785 3.065 1.57 4.633 2.282.785.784 2.282.784 3.066 1.568 1.568.784 3.065 2.28 5.417 3.065.784.784 1.568.784 2.28 1.568 1.57 1.568 3.85 2.28 5.418 3.85l1.57 1.567c1.567 1.568 3.848 3.065 5.416 4.633 18.46 16.964 29.224 40.772 29.224 67.002-1.637 49.112-42.41 90.667-93.23 90.667zm52.39-92.377c0 7.698-6.13 13.828-13.83 13.828h-24.66v24.662c0 7.698-6.13 13.828-13.83 13.828s-13.827-6.13-13.827-13.828v-24.662H454.26c-7.698 0-13.828-6.13-13.828-13.828 0-7.698 6.13-13.828 13.828-13.828h24.662v-24.662c0-7.698 6.13-13.828 13.828-13.828s13.828 6.13 13.828 13.828v24.662h24.662c7.628 0 13.83 6.13 13.83 13.828z"/></svg>