<svg xmlns="http://www.w3.org/2000/svg" viewBox="0 0 792 792"><path d="M669.458 320.765c-3.893-10.774-14.667-13.67-19.556-15.663h-1.992c-2.897-.996-4.89-.996-8.782-.996H465.12l82.115-262.008.996-1.992c5.886-16.658 2.898-28.337-9.777-36.214C533.565.996 528.676 0 523.787 0c-12.675 0-19.556 8.782-23.45 12.675l-.995 1.992C445.565 73.333 391.787 132 338.01 191.663l-92.89 101.67c-38.115 42.008-77.226 84.107-115.342 127.11-6.88 6.882-10.774 20.552-7.786 31.326 3.893 10.773 14.667 14.666 21.547 16.657l1.99.996c2.898.996 4.89.996 8.783.996H314.65L252.09 712.87c-3.892 14.667-7.785 31.325-11.77 46.897-1.99 10.773 4.89 23.448 12.676 28.336 3.893 1.992 7.786 3.893 12.675 3.893 3.894 0 8.783-.997 12.676-2.898 6.88-1.992 9.778-6.88 12.675-10.774L620.57 402.88c14.666-16.658 29.332-33.226 43.003-49.885 5.885-8.78 9.778-21.456 5.885-32.23zm-76.32 56.675L283.235 730.436c.996-3.893 1.992-6.88 2.897-10.774l62.56-243.45c3.893-15.662 0-25.44-4.89-31.324-5.884-7.786-15.662-12.675-27.34-13.67h-150.56c35.217-38.116 70.435-76.23 104.657-115.343l92.89-101.67c45.9-50.882 92.797-101.762 138.79-151.557l-74.33 238.56v1.992c-1.992 9.778 0 18.56 4.89 26.436 3.892 4.89 11.77 10.774 26.435 10.774h166.222c-10.773 12.586-21.546 24.355-32.32 37.03z"/></svg>