<?xml version="1.0" encoding="iso-8859-1"?><svg xmlns="http://www.w3.org/2000/svg" viewBox="0 0 611.924 611.924"><path d="M113.86 310.475c0 9.027-7.36 16.385-16.386 16.385s-16.385-7.358-16.385-16.385c0-9.027 7.357-16.385 16.384-16.385s16.385 7.36 16.385 16.385zm498.064-4.93v154.82c0 37.7-19.646 63.112-27.84 72.062l-34.437 36.03c-22.908 24.578-55.678 25.412-62.277 25.412H294.925c-44.224 0-69.635-22.15-76.16-28.674l-27.003-27.84v2.428c0 29.508-23.743 52.416-52.416 52.416h-86.93C22.908 592.202 0 568.46 0 539.786V269.514c0-29.508 23.743-52.416 52.416-52.416h86.02c27.004 0 49.154 19.646 52.416 45.892l102.405-106.5 31.1-113.025c2.428-9.86 12.29-25.412 31.102-25.412h54.918c16.385 0 27.84 9.86 29.508 26.246V229.46h89.282c10.62.834 28.673 4.096 45.892 22.15l22.15 22.908c8.192 9.027 13.123 19.647 13.957 31.935.757-1.744.757-.91.757-.91zm-450.58 234.317v-35.197c-.834-1.67-.834-4.096-.834-5.765l.834-199.044v-30.342c0-12.29-9.86-22.15-22.15-22.15H52.416c-12.29 0-22.15 9.86-22.15 22.15v270.348c0 12.29 9.86 22.15 22.15 22.15h86.02c13.123-.076 22.908-9.862 22.908-22.15zM581.658 306.38c-.834-4.932-2.427-9.028-5.765-13.124l-22.15-22.908c-9.86-9.86-19.646-12.29-24.577-12.29h-94.211c-12.29-1.668-24.577-11.453-24.577-33.603V47.485h-54.01c-.833 0-1.668 2.427-1.668 3.262L321.93 167.11c-.834 2.426-1.67 4.93-4.096 6.523L191.686 305.545V493.97l48.32 50.822c3.262 3.262 21.315 19.647 54.92 19.647H488.28c2.427 0 25.412-.835 40.962-16.386l33.604-35.197c4.096-4.93 19.646-23.743 19.646-51.582V306.38h-.834z"/></svg>