<svg xmlns="http://www.w3.org/2000/svg" viewBox="0 0 792 792"><path d="M641.475 792h-490.95c-25.924 0-46.964-21.13-46.964-46.964V46.964C103.56 21.04 124.69 0 150.526 0h490.95c25.923 0 46.963 21.13 46.963 46.964v697.983c0 25.924-21.04 47.053-46.963 47.053zM150.525 35.512c-6.747 0-11.54 4.794-11.54 11.54v697.984c0 6.747 4.793 11.54 11.54 11.54h490.95c6.746 0 11.54-4.793 11.54-11.54V46.964c0-6.747-4.794-11.54-11.54-11.54h-490.95v.088zm420.992 520.6c0-9.587-7.635-17.222-17.223-17.222H348.06c-9.59 0-17.224 7.635-17.224 17.223s7.635 17.223 17.223 17.223h205.168c9.588.09 18.29-7.634 18.29-17.223zm0 106.448c0-9.588-7.635-17.223-17.223-17.223H348.06c-9.59 0-17.224 7.635-17.224 17.223s7.635 17.223 17.223 17.223h205.168c9.588 0 18.29-7.635 18.29-17.223zm0-211.916c0-9.588-7.635-17.223-17.223-17.223H348.06c-9.59 0-17.224 7.636-17.224 17.224s7.635 17.223 17.223 17.223h205.168c9.588.976 18.29-6.66 18.29-17.223zm0-104.494c0-9.588-7.635-17.223-17.223-17.223H348.06c-9.59 0-17.224 7.635-17.224 17.223s7.635 17.223 17.223 17.223h205.168c9.588 0 18.29-7.634 18.29-17.223zm-1.953-104.493c0-9.588-7.635-17.223-17.223-17.223H348.15c-9.588 0-17.223 7.635-17.223 17.223s7.635 17.223 17.223 17.223H552.34c9.59 0 17.224-7.635 17.224-17.223zm0-105.47c0-9.588-7.635-17.223-17.223-17.223H348.15c-9.588 0-17.223 7.635-17.223 17.223s7.635 17.223 17.223 17.223H552.34c9.59.977 17.224-7.634 17.224-17.223zm-330.792 31.606l44.123-44.123c6.747-6.747 6.747-18.2 0-24.947s-18.2-6.747-24.947 0l-31.605 31.694-5.77-5.77c-6.748-6.748-18.2-6.748-24.948 0-6.747 6.746-6.747 18.2 0 24.946l18.2 18.2c3.818 3.818 7.635 4.794 12.43 4.794 3.905 0 8.7-1.864 12.517-4.794zm0 108.4l44.123-44.124c6.747-6.748 6.747-18.2 0-24.948-6.747-6.747-18.2-6.747-24.947 0l-31.605 31.605-5.77-5.77c-6.748-6.748-18.2-6.748-24.948 0-6.747 6.746-6.747 18.2 0 24.946l18.2 18.2c2.84 2.84 7.635 4.794 12.43 4.794 3.905.09 8.7-1.864 12.517-4.705zm0 104.493l44.123-44.123c6.747-6.747 6.747-18.2 0-24.947s-18.2-6.747-24.947 0l-31.605 31.605-5.77-5.77c-6.748-6.747-18.2-6.747-24.948 0-6.747 6.747-6.747 18.2 0 24.947l18.2 18.2c2.84 2.84 7.635 4.794 12.43 4.794 3.905.09 8.7-.887 12.517-4.704zm0 104.493l44.123-44.124c6.747-6.747 6.747-18.2 0-24.947-6.747-6.748-18.2-6.748-24.947 0l-31.605 31.604-6.747-5.77c-6.747-6.748-18.2-6.748-24.947 0-6.748 6.746-6.748 18.2 0 24.946l18.2 18.2c2.84 2.84 7.634 4.794 12.428 4.794 4.882 1.065 9.676-.888 13.494-4.705zm0 105.47l44.123-44.124c6.747-6.747 6.747-18.2 0-24.947-6.747-6.748-18.2-6.748-24.947 0l-31.605 31.604-5.77-5.77c-6.748-6.748-18.2-6.748-24.948 0-6.747 6.746-6.747 18.2 0 24.946l18.2 18.2c2.84 2.84 7.635 4.794 12.43 4.794 3.905.09 8.7-1.864 12.517-4.705zm0 105.468l44.123-44.123c6.747-6.747 6.747-18.2 0-24.947s-18.2-6.747-24.947 0l-31.605 31.605-6.747-5.77c-6.747-6.748-18.2-6.748-24.947 0-6.748 6.746-6.748 18.2 0 24.946l18.2 18.2c3.816 3.817 7.634 4.793 12.428 4.793 4.882 1.066 9.676-.887 13.494-4.705z"/></svg>