<svg xmlns="http://www.w3.org/2000/svg" viewBox="0 0 611.989 611.989"><path d="M609.922 179.31c-8.31-50.706-36.548-91.41-84.79-119.646-27.392-16.62-58.17-24.93-88.946-24.93-39.856 0-77.25 14.158-105.565 40.704-9.155 8.31-16.62 16.62-24.928 25.776-24.083-29.93-49.012-48.166-77.25-57.322-50.705-16.62-100.564-10.003-146.268 19.082C27.39 97.827 0 146.84 0 209.164c0 36.547 12.465 71.48 37.394 106.333C64.016 352.89 97.254 391.13 140.42 435.99c29.93 29.93 59.86 59.86 89.715 88.944l29.084 28.238c2.46 2.462 5 5 7.462 7.463l3.31 3.31c5.847 5 19.08 13.31 35.7 13.31 14.157 0 27.39-5.848 39.087-16.62 49.858-47.397 103.87-98.87 154.576-153.73 26.622-28.24 56.476-62.324 81.405-99.718 26.623-40.625 35.78-83.867 29.162-127.878zm-54.86 110.488c-23.236 35.7-51.55 66.478-78.096 95.562C426.26 439.374 373.94 490.925 324.08 537.398c-6.616 5.848-12.464 8.31-18.31 8.31-7.464 0-13.312-4.155-14.928-5.848l-2.462-2.462-7.463-7.463-29.084-27.39c-29.084-29.085-59.86-58.17-88.945-88.1-43.242-44.01-73.942-79.79-100.564-116.337-20.774-29.93-31.546-59.015-31.546-88.945 0-51.55 21.62-91.408 67.325-120.492 24.083-15.772 49.86-23.236 75.634-23.236 14.927 0 29.93 2.462 44.857 7.463 24.083 8.31 44.857 24.083 66.478 50.705 1.693 1.693 9.156 10.003 21.62 10.003 5.002 0 13.312-1.693 20.775-10.003l.846-1.693c8.31-9.157 15.773-17.467 23.237-24.93 23.237-21.62 52.32-32.393 84.79-32.393 25.777 0 50.706 7.463 73.096 20.774 39.856 24.084 63.17 55.707 69.787 98.026 5.77 37.472-1.693 72.327-24.16 106.412zM213.516 151.84c-3.31 7.463-12.465 10.772-20.774 7.463-7.462-3.31-14.926-5-23.236-5-30.777 0-55.706 24.928-55.706 55.705 0 10.772 3.31 21.62 9.156 30.777 5 6.617 2.462 16.62-4.155 21.62-2.463 1.694-5.85 2.463-8.31 2.463-5.002 0-10.004-2.462-12.466-6.617-9.156-14.156-14.157-30.776-14.157-48.165 0-47.397 39.087-86.406 86.406-86.406 12.465 0 24.93 2.46 36.548 8.31 6.695 3.23 10.004 12.387 6.695 19.85z"/></svg>