<?xml version="1.0" encoding="iso-8859-1"?><svg xmlns="http://www.w3.org/2000/svg" viewBox="0 0 612.025 612.025"><path d="M501.38 196.508c2.23 3.764 47.4 85.805.767 182.903-2.23 5.298-7.528 7.53-12.826 7.53-2.23 0-3.763-.768-5.994-1.534-6.76-2.997-9.76-12.06-6.76-18.82 40.636-83.575 2.23-154.324.766-157.322-3.764-6.76-1.533-15.056 5.297-18.82 6.76-2.998 14.986-.767 18.75 6.064zm72.283-71.516c-3.764-6.76-12.06-9.062-18.82-5.298-6.76 3.764-9.06 12.06-5.297 18.82.767 1.533 77.51 139.268-.767 299.587-2.998 6.762-.768 15.057 6.76 18.82 2.23.768 3.764 1.534 5.995 1.534 5.297 0 9.76-2.997 12.826-7.528 83.645-173.144 2.3-319.94-.697-325.934zm-160.32-36.177V494.56c-.766 14.29-10.524 20.355-19.586 20.355-5.995 0-12.06-2.997-19.587-8.295l-116.684-93.333H211.55v89.57c0 25.58-20.353 45.934-45.934 45.934H124.98c-25.582 0-45.936-20.353-45.936-45.934v-89.57H45.168C20.354 413.287 0 392.934 0 368.12V204.732c0-24.815 20.354-45.168 45.168-45.168h213.015l112.92-91.103c.767-.767 2.23-1.533 2.997-2.23 1.533-.768 8.295-2.998 15.056-2.998 14.36 0 24.188 10.525 24.188 25.58zM44.472 385.405H248.426v-197.96H44.47c-9.06 0-17.286 7.53-17.286 17.288V368.12c.698 9.757 8.226 17.285 17.287 17.285zm139.27 27.882h-76.815v89.57c0 9.758 8.295 18.052 18.053 18.052h40.637c9.76 0 18.053-8.296 18.053-18.054v-89.57h.07zM385.46 92.58l-109.156 87.338v212.318l109.156 87.34V92.578z"/></svg>