<svg xmlns="http://www.w3.org/2000/svg" viewBox="0 0 612.069 612.069"><path d="M540.947 57.384H71.053C31.86 57.384 0 89.176 0 128.436v281.95c0 39.192 31.792 71.053 71.053 71.053h49.607l43.646 58.445c2.946 3.7 12.607 14.8 27.407 14.8 6.646 0 16.992-2.946 26.653-15.554l43.646-57.69h279.004c39.192 0 71.053-31.793 71.053-71.054V129.122c-.138-39.193-31.93-71.738-71.123-71.738zm43.646 353.688c0 24.392-20.007 43.646-43.646 43.646H254.543c-4.454 0-8.154 2.193-11.1 5.207l-47.346 63.653c-2.946 3.7-4.454 4.454-4.454 4.454-.754 0-3.7-2.193-5.207-4.454l-47.346-63.653c-2.193-3.7-6.646-5.207-11.1-5.207H71.738c-24.392 0-43.646-20.007-43.646-43.646v-281.95c0-24.392 20.007-43.646 43.646-43.646h469.894c24.392 0 43.646 20.007 43.646 43.646v281.95h-.685zM498.74 272.666c0 7.4-5.892 13.292-13.292 13.292H125.045c-7.4 0-13.292-5.892-13.292-13.292 0-7.4 5.893-13.292 13.292-13.292h360.403c7.4-.754 13.292 5.207 13.292 13.292zm0 82.153c0 7.4-5.892 13.29-13.292 13.29H125.045c-7.4 0-13.292-5.892-13.292-13.29s5.893-13.293 13.292-13.293h360.403c7.4-.754 13.292 5.138 13.292 13.292zM111 191.266c0-7.4 5.892-13.292 13.29-13.292h216.79c7.4 0 13.293 5.893 13.293 13.292s-5.893 13.292-13.292 13.292H125.046c-7.4.822-14.046-5.893-14.046-13.293z"/></svg>