<?xml version="1.0" encoding="iso-8859-1"?><svg xmlns="http://www.w3.org/2000/svg" viewBox="0 0 612.816 612.816"><path d="M306.408 0C137.368 0 .37 136.923.37 305.963S137.37 612.816 306.41 612.816 612.445 475.82 612.445 306.78 475.375 0 306.408 0zm0 583.147c-152.203 0-276.368-124.165-276.368-276.368S154.205 30.41 306.408 30.41s276.368 124.166 276.368 276.37S458.61 583.146 306.408 583.146zm136.18-273.18c0 8.012-6.378 14.39-14.39 14.39H187.88c-8.01 0-14.39-6.378-14.39-14.39s6.38-14.39 14.39-14.39H428.2c7.936.002 14.39 6.38 14.39 14.39z"/></svg>