<?xml version="1.0" encoding="iso-8859-1"?><svg xmlns="http://www.w3.org/2000/svg" viewBox="0 0 612.069 612.069"><path d="M562.4 96.695H49.67C22.228 96.695 0 118.922 0 146.363v319.343c0 27.44 22.227 49.668 49.668 49.668H562.4c27.442 0 49.67-22.227 49.67-49.668V146.294c-.07-27.372-22.297-49.6-49.67-49.6zM49.67 124.067H562.4c11.87 0 22.228 9.604 22.228 22.227v41.504H27.44v-41.504c0-11.8 9.674-22.227 22.228-22.227zm534.96 131.167H27.44v-40.75H584.63v40.75zM562.4 487.864H49.67c-11.868 0-22.227-9.604-22.227-22.227V282.675H584.63V464.95c0 12.555-9.673 22.914-22.227 22.914zM520.897 356.01c0 7.41-5.9 13.31-13.31 13.31h-142.28c-7.408 0-13.308-5.9-13.308-13.31 0-7.408 5.9-13.308 13.31-13.308h141.525c7.41-.754 14.063 5.145 14.063 13.31zm0 72.582c0 7.41-5.9 13.31-13.31 13.31H426.09c-7.41 0-13.31-5.9-13.31-13.31s5.9-13.31 13.31-13.31h81.5c6.654 0 13.308 5.9 13.308 13.31z"/></svg>