<?xml version="1.0" encoding="iso-8859-1"?><svg xmlns="http://www.w3.org/2000/svg" viewBox="0 0 612.074 612.074"><path d="M306.037 0C136.997 0 0 136.997 0 306.037s136.997 306.037 306.037 306.037 306.037-136.997 306.037-306.037S475.077 0 306.037 0zm0 582.405c-153.02 0-276.368-124.165-276.368-276.368S153.833 29.67 306.036 29.67s276.368 124.164 276.368 276.367S458.24 582.405 306.037 582.405zm134.55-272.363c0 8.01-6.38 14.39-14.39 14.39h-105.77v104.955c0 8.01-6.38 14.39-14.39 14.39-8.01 0-14.39-6.38-14.39-14.39V324.432h-105.77c-8.01 0-14.39-6.38-14.39-14.39 0-8.01 6.38-14.39 14.39-14.39h104.955v-105.77c0-8.01 6.38-14.39 14.39-14.39 8.01 0 14.39 6.38 14.39 14.39v104.955h104.955c9.64 0 16.02 7.195 16.02 15.205z"/></svg>