<?xml version="1.0" encoding="iso-8859-1"?><svg xmlns="http://www.w3.org/2000/svg" viewBox="0 0 612.074 612.074"><path d="M306.037 0C136.997 0 0 136.997 0 306.037s136.997 306.037 306.037 306.037 306.037-136.997 306.037-306.037S475.077 0 306.037 0zm0 583.147c-152.203 0-276.368-124.165-276.368-276.368S153.834 30.41 306.036 30.41s276.368 124.166 276.368 276.37-123.35 276.367-276.368 276.367zm148.197-296.395l-105.77-98.502c-4.82-4.82-9.642-6.38-15.205-6.38-4.822 0-20.028 2.375-20.028 28.038V266.8l-83.296-77.733c-4.82-4.82-9.642-6.38-15.205-6.38-4.82 0-20.026 2.375-20.026 28.038V402.98c0 26.407 16.02 28.038 20.843 28.038 5.637 0 11.2-2.374 16.02-7.195l82.48-76.917v56.075c0 26.406 16.022 28.038 20.844 28.038 5.638 0 11.2-2.374 16.022-7.195l100.95-93.754c16.836-15.206 12.83-32.044 4.82-41.686-1.632-.816-2.448-1.632-2.448-1.632zm-143.376 21.66l-87.376 80.922v-165.85l88.933 82.48c0 .815-.815 1.63-1.557 2.447zm119.344 0l-87.3 80.922v-165.85l88.932 82.48c-.074.815-.816 1.63-1.632 2.447z"/></svg>