<svg xmlns="http://www.w3.org/2000/svg" viewBox="0 0 612.074 612.074"><path d="M306.037.037C136.997.037 0 137.034 0 306.074s136.997 305.963 306.037 305.963S612.074 475.04 612.074 306 475.004.037 306.037.037zm0 583.22c-152.203 0-276.368-124.164-276.368-276.367S153.833 30.522 306.036 30.522 582.405 154.687 582.405 306.89 458.24 583.258 306.037 583.258zm-48.88-393.337h-48.064c-15.205 0-27.22 12.016-27.22 27.22v179.425c0 15.205 12.015 27.22 27.22 27.22h48.064c15.205 0 27.22-12.015 27.22-27.22V217.14c.002-15.204-12.014-27.22-27.22-27.22zm-2.447 203.456h-42.427v-173.86h42.427v173.86zM402.165 189.92H354.1c-15.204 0-27.22 12.016-27.22 27.22v179.425c0 15.205 12.016 27.22 27.22 27.22h48.065c15.205 0 27.22-12.015 27.22-27.22V217.14c.002-15.204-12.014-27.22-27.22-27.22zm-2.448 203.456H357.29v-173.86h42.427v173.86z"/></svg>