<?xml version="1.0" encoding="iso-8859-1"?><svg xmlns="http://www.w3.org/2000/svg" viewBox="0 0 792 792"><path d="M656.204 282.895v-22.69C656.204 116.346 539.857 0 396 0S136.76 116.347 136.76 260.204v22.69c-19.888 4.732-35.044 22.692-35.044 43.543V668.03c0 68.162 55.808 123.97 123.97 123.97h340.63c68.16 0 123.968-55.808 123.968-123.97V326.438c0-20.85-14.193-38.81-34.08-43.542zm-484.487-22.69c0-124.934 100.314-225.16 224.283-225.16s225.16 101.278 225.16 225.16v21.726h-63.344v-23.654c0-87.96-71.928-159.89-159.89-159.89s-159.888 71.93-159.888 159.89v23.655h-66.234l-.087-21.726zm351.056-2.893v23.655H272.995v-23.655c0-69.037 55.808-124.933 124.933-124.933s124.845 55.895 124.845 124.932zM655.24 668.907c0 49.237-39.775 88.925-88.925 88.925h-340.63c-49.237 0-88.925-39.775-88.925-88.925V326.35c0-5.695 4.73-10.426 10.426-10.426H644.027c5.695 0 10.426 4.73 10.426 10.426v342.558h.788zM393.11 392.67c-45.383 0-82.355 36.885-82.355 82.355 0 20.85 7.534 40.65 21.727 55.808V642.45c0 22.69 17.96 40.65 40.65 40.65h38.812c22.69 0 40.65-17.96 40.65-40.65V529.87c14.194-15.158 21.728-35.045 21.728-55.81 1.14-45.47-35.743-81.39-81.213-81.39zM423.42 509.02c-3.767 3.767-5.695 8.498-5.695 13.23V640.52c0 2.805-2.804 5.696-5.695 5.696h-38.81c-2.805 0-5.696-2.804-5.696-5.695V522.248c0-4.73-1.927-9.462-5.695-13.23-10.425-8.497-16.12-21.726-16.12-35.043 0-25.582 20.852-47.31 47.31-47.31 26.46 0 47.31 20.85 47.31 47.31.09 13.316-6.482 26.545-16.908 35.044z"/></svg>