<?xml version="1.0" encoding="iso-8859-1"?><svg xmlns="http://www.w3.org/2000/svg" viewBox="0 0 611.942 611.942"><path d="M591.402 35.645c-2.176 0-3.673 0-5.85.748-.747 0-1.495 0-1.495.748L403.34 107.674 227.045 39.318c-.748 0-.748 0-1.496-.748-3.674-.748-8.843-2.176-16.19-2.176h-1.427c-8.094 0-15.44 1.496-22.785 4.42-.748 0-2.176.75-2.925.75L22.115 104C3.75 111.346-.67 127.533.078 136.307v416.525c0 2.176 0 11.018 6.597 17.616 3.673 3.673 8.842 5.85 13.943 5.85 2.925 0 6.597-.75 9.522-2.178l178.472-69.783 170.446 66.11 4.42 1.497c3.674 1.496 10.27 2.925 19.86 2.925h.75c8.84 0 16.187-1.497 24.212-4.422l166.025-64.614s.748 0 .748-.748c11.018-5.17 16.868-15.44 16.868-27.886V58.43c-.678-15.44-11.016-22.785-20.538-22.785zM26.536 546.165V136.308c0-1.496.748-5.17 5.17-6.597l158.678-61.69c1.496 0 2.176-.748 3.673-.748v414.28l-167.52 64.614zm194.66-65.36V65.774l168.2 65.364v415.027l-168.2-65.363zm362.86-2.926c0 2.176-.748 2.924-1.496 2.924l-165.277 64.614s-.748 0-.748.748V131.138l167.453-65.363V477.88h.068zm-128.55-96.99c3.674-6.597 12.516-8.842 18.365-4.42l21.29 12.514 19.112-30.13c3.673-6.598 12.515-8.095 19.112-4.422 6.597 3.673 8.094 12.515 4.42 19.112l-19.11 29.383 20.54 12.515c6.597 3.673 8.842 12.515 4.42 18.364-2.175 4.42-7.345 6.597-11.766 6.597-2.176 0-4.42-.748-6.597-2.176l-21.288-12.515-19.112 30.13c-2.925 4.422-7.346 6.598-11.767 6.598-2.176 0-5.17-.748-7.346-2.176-6.597-3.673-8.094-12.515-4.42-19.112l19.11-29.383-20.54-12.516c-5.916-3.673-8.092-11.767-4.42-18.364z"/></svg>