<?xml version="1.0" encoding="iso-8859-1"?><svg xmlns="http://www.w3.org/2000/svg" viewBox="0 0 613.95 613.95"><path d="M597.972 96.853l-81.725-81.725C506.11 4.99 493.477 0 480.064 0s-26.982 5.07-36.184 15.128L389.137 69.87c-10.917-3.352-23.55-.857-31.972 6.707l-23.55 23.55c-9.28 9.28-10.917 23.55-5.927 35.404L63.174 400.047c-.858.858-1.716 1.716-1.716 2.495v.86c-.858.857-.858 1.715-1.716 2.494l-47.1 143.253-5.07 15.128-5.068 15.128c0 .858 0 1.716-.858 1.716-1.716 8.42 0 15.127 2.495 19.338.86 1.716 1.717 3.353 2.496 4.21 5.07 5.928 12.633 9.28 21.055 9.28h5.849c.857 0 1.715 0 1.715-.857l21.055-6.705 151.596-49.674c2.495-.857 4.21-1.715 5.927-3.352l265.294-265.294c3.353 1.716 6.706 1.716 10.917 1.716 8.422 0 15.986-3.353 21.913-9.28l23.55-23.55c9.28-9.28 10.917-21.913 6.706-32.83l54.743-54.743c21.213-19.418 21.213-52.327 1.016-72.524zM204.632 519.67l-42.89-42.968 251.804-252.66 42.968 42.967-251.88 252.66zm187-317.542L139.83 454.788l-42.968-43.747L348.665 159.24l42.968 42.89zM66.528 570.202l-21.055-21.055L81.656 439.66l47.18 47.18 47.178 47.18L66.527 570.2zM496.05 254.376c-.858-.858-.858-1.716-1.716-1.716l-130.54-131.4c-1.717-1.715-2.496-2.494-4.212-3.352l18.56-19.34 1.716 1.717 132.257 132.257c.858.858 1.716 1.716 2.495 1.716l-18.56 20.118zm80.01-106.133l-53.03 53.028L412.69 90.148l53.028-53.028c7.564-7.565 21.055-7.565 28.62 0l81.724 81.646c7.563 8.422 7.563 21.055 0 29.477z"/></svg>