<?xml version="1.0" encoding="iso-8859-1"?><svg xmlns="http://www.w3.org/2000/svg" viewBox="0 0 611.922 611.922"><path d="M159.51 259.398c37.78 0 68.872-31.094 68.872-68.872s-31.094-68.872-68.872-68.872-68.872 31.094-68.872 68.872c.855 37.78 31.093 68.872 68.872 68.872zm0-106.65c20.988 0 37.78 16.79 37.78 37.778s-16.792 37.78-37.78 37.78-37.78-16.792-37.78-37.78c.857-20.988 17.647-37.78 37.78-37.78zM570.88 36.923H40.265C18.423 36.924 0 54.57 0 77.19v457.542c0 21.843 17.646 40.266 40.266 40.266h531.39c21.843 0 40.266-17.646 40.266-40.266V77.19c-.777-21.843-18.423-40.266-41.043-40.266zm9.25 434.844H120.875l95.69-127.64 60.478 56.28c3.343 3.343 7.54 4.198 12.593 4.198 4.198-.855 8.395-2.487 10.883-6.685L453.345 180.5 580.13 322.363v149.404zM40.265 67.94h531.39c5.053 0 9.25 4.198 9.25 9.25v197.29L464.228 144.35c-3.343-3.343-7.54-5.053-12.593-5.053s-9.25 2.487-11.738 6.684L285.44 365.117 224.96 309.77c-3.343-3.343-7.54-4.198-11.738-4.198-4.198 0-8.395 2.487-10.883 5.908L82.244 470.913H31.016V76.335c0-4.198 4.198-8.395 9.25-8.395zM570.88 543.983H40.265c-5.053 0-9.25-4.198-9.25-9.25v-31.87H580.05v31.87c.08 5.052-4.12 9.25-9.17 9.25z"/></svg>