<svg xmlns="http://www.w3.org/2000/svg" viewBox="0 0 612 612"><path d="M554.993 136.898h-352.25v-29.6c0-16.307-13.29-29.6-29.6-29.6H71.74c-16.307 0-29.6 13.292-29.6 29.6v27.407c0 1.507 0 2.946.754 3.7C18.5 144.298 0 166.498 0 192.398v285.65C0 509.155 25.146 534.3 56.253 534.3h499.494c31.107 0 56.253-25.145 56.253-56.252v-285.65c-.822-31.04-25.968-55.5-57.007-55.5zM69.545 106.614c0-1.507.754-2.193 2.193-2.193h101.406c1.507 0 2.193.755 2.193 2.194v27.407c0 1.508-.754 2.194-2.193 2.194H71.738c-1.507 0-2.193-.754-2.193-2.193v-27.406zm-13.36 56.938h499.493c15.554 0 28.847 12.607 28.847 28.846v133.198H437.28c-6.646-65.845-62.9-117.645-130.252-117.645s-123.606 51.8-130.252 117.646H27.34V192.398c0-15.485 12.606-28.846 28.845-28.846zm354.51 176.16c0 57.006-46.592 103.598-103.6 103.598s-103.598-46.66-103.598-103.6 46.592-103.598 103.6-103.598c56.938-.754 103.598 45.838 103.598 103.6zm144.298 167.182H56.185c-15.554 0-28.846-12.607-28.846-28.846V353.003h148.75c6.646 65.845 62.9 117.645 130.252 117.645 67.353 0 123.606-51.8 130.252-117.645h146.49v125.045c.755 16.307-11.852 28.846-28.09 28.846zM307.096 273.11c-36.246 0-65.846 29.6-65.846 65.846s29.6 65.845 65.846 65.845 65.846-29.6 65.846-65.844-29.6-65.845-65.846-65.845zm0 105.04c-21.446 0-38.507-16.993-38.507-38.508 0-21.515 16.99-38.507 38.506-38.507 21.515 0 38.507 16.992 38.507 38.507-.068 21.515-17.814 38.507-38.507 38.507zm210.898-162.045c0-8.154 6.646-14.8 14.8-14.8s14.8 6.646 14.8 14.8-6.646 14.8-14.8 14.8c-8.154.753-14.8-5.893-14.8-14.8zm-54.814 0c0-8.154 6.646-14.8 14.8-14.8s14.8 6.646 14.8 14.8-6.646 14.8-14.8 14.8c-8.086.753-14.8-5.893-14.8-14.8z"/></svg>