<svg xmlns="http://www.w3.org/2000/svg" viewBox="0 0 612.04 612.04"><path d="M582.554 435.982c27.586-59.23 37.357-127.48 22.7-195.657C575.188 100.667 449.36.02 306.544.02c-21.947 0-43.82 2.405-65.77 7.29C161.25 24.375 93 72.256 48.352 141.258 4.53 210.26-10.127 291.437 6.935 371.79c9.772 46.302 30.818 88.47 59.23 124.174.828.827.828 1.654 1.655 2.405l2.404 2.404C127.05 568.95 212.287 612.02 304.816 612.02c21.948 0 43.822-2.405 65.77-7.29 47.054-10.524 89.297-30.82 125-59.232h.828l.827-.827c35.705-28.412 64.117-64.942 84.412-106.36 0 0 0-.826.827-.826-.753-.675.074-1.502.074-1.502zm-7.366-189.944c12.177 56.825 6.464 113.65-14.582 164.012l-239.48-114.478-.825-266.312c122.596 7.366 228.956 95.836 254.888 216.778zm-500.83-90.124C114.12 94.204 175.005 51.208 247.238 35.8c14.583-3.233 28.414-4.887 42.996-5.714l.827 267.89-208.584 168.9c-21.948-30.067-38.184-64.944-46.302-102.302-15.41-72.234-1.58-146.122 38.184-208.66zm290.59 418.9c-19.467 4.058-38.935 6.463-59.23 6.463-79.525 0-152.587-34.877-203.775-90.95l202.12-163.186 162.36 203.775c-29.99 20.37-64.117 35.78-101.474 43.898zm124.25-63.29L358.485 346.76l189.944 90.124c-15.41 28.337-35.705 53.518-59.232 74.64z"/></svg>