<svg xmlns="http://www.w3.org/2000/svg" viewBox="0 0 612.074 612.074"><path d="M306.037.037C136.997.037 0 137.034 0 306.074s136.997 305.963 306.037 305.963S612.074 475.04 612.074 306 475.077.037 306.037.037zm0 582.405c-152.203 0-276.368-124.165-276.368-276.368S153.833 29.706 306.036 29.706 582.405 153.87 582.405 306.074s-123.35 276.368-276.368 276.368zm119.344-297.21c-.815 0-.815-.816-1.63-.816l-169.857-97.76c-5.637-3.19-10.384-4.82-16.02-4.82-11.2 0-23.217 8.826-23.217 28.036v192.256c.816 19.21 12.016 28.037 24.032 28.037 5.637 0 11.2-1.632 16.837-4.82l162.587-93.755c12.016-6.38 17.653-15.205 18.395-24.848.89-3.857-.667-13.5-11.126-21.51zM244.326 398.197V215.51l157.84 91.306-157.84 91.38z"/></svg>