<svg xmlns="http://www.w3.org/2000/svg" viewBox="0 0 612.074 612.074"><path d="M306.037 0C136.997 0 0 136.997 0 306.037s136.997 306.037 306.037 306.037 306.037-136.997 306.037-306.037S474.26 0 306.037 0zm0 582.405c-152.203 0-276.368-124.165-276.368-276.368S153.02 29.67 306.036 29.67s276.368 124.164 276.368 276.367S458.24 582.405 306.037 582.405zm12.832-128.17c0 8.826-7.196 16.02-16.022 16.02-8.827 0-16.02-7.195-16.02-16.02 0-8.828 7.194-16.022 16.02-16.022 8.752 0 16.02 7.195 16.02 16.02zm66.458-217.92c0 28.037-16.02 53.7-45.69 71.28-21.658 12.832-20.843 28.037-20.843 28.853V374.944c0 8.01-6.38 14.39-14.39 14.39s-15.205-6.38-15.205-14.39v-36.048c-.816-12.832 5.637-37.68 34.416-55.26 14.39-8.826 31.227-24.03 31.227-46.43 0-27.222-22.4-49.697-49.696-49.697s-49.696 22.4-49.696 49.695c0 8.01-6.378 14.39-14.39 14.39s-14.39-6.38-14.39-14.39c0-44.06 35.233-79.29 79.292-79.29s79.366 34.34 79.366 78.4z"/></svg>