<svg xmlns="http://www.w3.org/2000/svg" viewBox="0 0 792.092 792.092"><path d="M660.458 335.592c-1.008-23.742-16.867-49.5-54.45-49.5h-48.492V154.458C557.516 69.3 488.216 0 403.058 0h-14.85C303.05 0 233.75 69.3 233.75 154.458V286.09h-56.467c-31.717 0-46.567 23.743-46.567 46.568v24.75c0 140.617 110.917 255.383 249.517 263.358v36.667H261.525c-22.733 0-40.608 17.783-40.608 40.608v53.443c0 22.733 17.783 40.608 40.608 40.608h272.25c22.733 0 40.608-17.782 40.608-40.607V699.05c0-22.733-18.792-40.608-40.608-40.608H415.892V620.86c136.583-8.893 245.483-123.75 245.483-262.35V337.7c-.917-1.1-.917-2.108-.917-2.108zm-123.75 363.366v52.433c0 2.018-2.017 3.943-3.942 3.943h-272.25c-2.017 0-3.942-2.017-3.942-3.942V698.96c0-2.017 2.017-3.942 3.942-3.942h272.25c1.926-.09 3.942.917 3.942 3.942zM387.2 36.575h14.85c65.358 0 117.792 53.442 117.792 117.792v221.741c0 65.358-53.442 117.792-117.792 117.792H387.2c-65.358 0-117.792-53.442-117.792-117.792v-54.45h125.767c9.9 0 17.783-7.883 17.783-17.783s-7.883-17.783-17.783-17.783H269.408v-54.45h125.767c9.9 0 17.783-7.883 17.783-17.783s-7.883-17.784-17.783-17.784H269.408v-40.608c0-4.95 0-8.892 1.008-12.833h124.758c9.9 0 17.783-7.883 17.783-17.783s-7.883-17.783-17.783-17.783H280.317c18.79-42.72 60.408-70.495 106.883-70.495zm236.592 320.833C623.792 482.166 521.86 584.1 397.1 584.1h-3.942c-124.758 0-226.692-101.933-226.692-226.692v-24.75c0-9.9 5.958-9.9 9.9-9.9h56.467v54.45c0 85.158 69.3 154.458 154.458 154.458h14.85c85.16 0 154.46-69.3 154.46-154.458v-54.45h49.5c11.916 0 16.866 3.942 17.782 13.842v20.808h-.09z"/></svg>