<svg xmlns="http://www.w3.org/2000/svg" viewBox="0 0 792 792"><path d="M665.335 486.777c-7.815-46.16-25.534-88.323-43.162-126.578C569.197 243.433 505.408 137.39 442.62 39.254l-7.816-13.72C423.99 8.814 411.27 0 396.55 0c-21.627 0-35.348 19.627-39.256 25.534v1l-13.72 21.626c-24.535 39.255-50.07 80.508-74.603 121.67-38.254 64.79-86.323 151.114-121.67 243.344-11.813 30.44-22.535 60.88-23.535 94.23-3.907 86.323 27.442 159.017 92.23 215.9C266.063 767.466 329.852 792 395.55 792c96.137 0 183.55-49.068 233.528-132.485 33.35-54.974 46.07-113.856 36.257-172.738zm-67.697 154.11c-43.162 72.604-118.764 114.766-202.18 114.766-56.883 0-112.857-20.627-156.02-58.882-55.973-49.067-83.415-112.856-80.507-187.458 1-27.442 9.815-53.975 21.627-82.417 34.348-90.322 81.417-174.647 118.764-238.436 23.536-40.255 49.07-81.418 74.603-120.673l12.72-20.627c0-1 1-1 1-2 2-2.907 5.907-7.814 7.816-8.813 0 0 2.907 1 7.814 8.814l7.815 12.722c60.88 96.138 124.67 201.18 176.645 316.037 16.72 37.255 33.348 76.51 40.254 117.763 9.903 51.068-.91 101.045-30.352 149.205zm-184.55 21.536c0 9.814-7.816 17.628-17.63 17.628-89.322 0-160.925-72.602-160.925-160.925 0-9.814 7.815-17.628 17.628-17.628 9.815 0 17.63 7.815 17.63 17.628.998 68.696 56.973 124.67 125.668 124.67 9.814 0 17.63 8.814 17.63 18.628z"/></svg>