<svg xmlns="http://www.w3.org/2000/svg" viewBox="0 0 612.816 612.816"><path d="M306.408 0C137.368 0 .37 136.997.37 306.037s136.998 306.78 306.038 306.78 306.037-136.998 306.037-306.038S475.448 0 306.408 0zm0 583.147c-152.203 0-276.368-124.165-276.368-276.368S154.205 29.594 306.408 29.594 582.776 153.76 582.776 305.963 458.61 583.147 306.408 583.147zm142.56-269.99s0 .817-.816.817c-.816.816-.816 1.632-1.632 2.374L336.003 426.865c-3.19 3.19-6.38 4.005-10.384 4.005-4.006 0-7.196-1.632-10.385-4.005-5.637-5.637-5.637-15.205 0-20.843l84.928-84.928H165.405c-8.01 0-14.39-6.38-14.39-14.39 0-8.01 6.38-14.39 14.39-14.39h234.683l-84.038-84.038c-5.637-5.637-5.637-15.205 0-20.843 5.637-5.637 15.205-5.637 20.843 0l108.886 108.96c.815.816 1.63 1.632 1.63 2.374l.817.816c0 .816.816.816.816 1.632s0 .816.816 1.632v8.9c-.076.668-.076.668-.892 1.41 0-.742 0 0 0 0z"/></svg>