<svg xmlns="http://www.w3.org/2000/svg" viewBox="0 0 611.923 611.923"><path d="M606.157 120.824L489.907 4.574c-2.46-2.46-6.61-4.15-10.763-4.15H40.672C18.222.423 0 18.72 0 41.093V570.83c0 22.45 18.298 40.67 40.672 40.67H571.25c22.45 0 40.673-18.298 40.673-40.67V131.664c-.846-3.306-2.46-7.458-5.766-10.84zm-186.83-89.647V167.34c0 .845-.845.845-.845.845H376.12V31.177h43.208zm-74.73 0v137.008H192.594c-.846 0-.846-.846-.846-.846V31.176h152.846zM141.928 580.9V390.688c0-35.674 29.06-64.737 64.736-64.737H415.1c35.674 0 64.737 29.063 64.737 64.738v190.135H141.93v.077zm438.47-9.995c0 4.997-4.15 9.995-9.994 9.995H510.59V390.688c0-52.28-43.21-95.49-95.49-95.49H207.51c-52.28 0-95.49 43.21-95.49 95.49v190.135H40.596c-4.997 0-9.995-4.152-9.995-9.995V41.095c0-4.997 4.152-9.995 9.995-9.995h120.4v136.162c0 17.453 14.148 31.523 31.524 31.523h225.885c17.453 0 31.523-14.147 31.523-31.523V31.177h23.22l107.1 107.1.153 432.628zM422.635 490.33c0 8.304-6.612 14.916-14.916 14.916H217.506c-8.304 0-14.916-6.612-14.916-14.916 0-8.303 6.612-14.916 14.916-14.916h189.29c9.15 0 15.838 6.613 15.838 14.916zm0-79.652c0 8.303-6.612 14.916-14.916 14.916H217.506c-8.304 0-14.916-6.612-14.916-14.916s6.612-14.916 14.916-14.916h189.29c9.15-.922 15.838 5.767 15.838 14.916z"/></svg>