<svg xmlns="http://www.w3.org/2000/svg" viewBox="0 0 612.077 612.077"><path d="M306.037 0C136.997 0 0 137 0 306.04s136.997 306.036 306.037 306.036S612.074 475.08 612.074 306.04C612.816 136.923 475.077 0 306.037 0zm0 582.332c-152.203 0-276.368-124.165-276.368-276.368S153.833 29.596 306.036 29.596 582.405 153.76 582.405 305.964s-123.35 276.368-276.368 276.368zm136.18-276.368c0 8.01-6.378 14.39-14.39 14.39H188.252c-8.01 0-14.39-6.38-14.39-14.39 0-8.01 6.38-14.39 14.39-14.39h239.505c8.01-.815 14.463 6.38 14.463 14.39zm0-98.5c0 8.01-6.378 14.39-14.39 14.39H188.252c-8.01 0-14.39-6.38-14.39-14.39 0-8.012 6.38-14.39 14.39-14.39h239.505c8.01-.817 14.463 5.562 14.463 14.39zm0 197.076c0 8.01-6.378 14.39-14.39 14.39H188.252c-8.01 0-14.39-6.38-14.39-14.39s6.38-14.39 14.39-14.39h239.505c8.01-.074 14.463 6.38 14.463 14.39z"/></svg>