<?xml version="1.0" encoding="iso-8859-1"?><svg xmlns="http://www.w3.org/2000/svg" viewBox="0 0 611.941 611.941"><path d="M598.682 46.443H558.84c-15.515 0-22.895 8.133-25.834 13.258-2.94 5.195-3.69 9.57-3.69 12.576l-5.877 30.275H28.917c-10.32 0-17.7 2.94-22.894 8.885-4.442 5.194-6.63 11.823-5.877 19.204v1.503l55.357 229.56c2.94 12.575 14.01 26.585 33.966 26.585h374.24l-10.32 50.915c-5.195-1.504-10.32-2.187-15.515-2.187-31.027 0-56.86 21.39-62.738 50.915H175.784c-6.63-28.77-31.71-50.914-62.738-50.914-35.4 0-64.24 28.772-64.24 64.24 0 35.402 28.77 64.242 64.24 64.242 31.027 0 56.86-21.39 62.738-50.915h198.533c6.63 28.772 31.71 50.915 62.738 50.915 35.4 0 64.24-28.772 64.24-64.24 0-19.957-8.883-37.657-22.893-49.48l20.64-101.146 49.478-233.25L555.9 74.6v-1.504s1.504-.752 2.94-.752h39.843c7.38 0 13.258-5.877 13.258-13.258.07-6.697-5.877-12.643-13.258-12.643zM113.046 539.528c-20.64 0-36.905-16.265-36.905-36.905s16.266-36.905 36.906-36.905 36.905 16.265 36.905 36.905c0 19.888-16.265 36.905-36.904 36.905zm324.008 0c-20.64 0-36.905-16.265-36.905-36.905s16.264-36.905 36.904-36.905 36.905 16.265 36.905 36.905c0 19.888-16.198 36.905-36.906 36.905zM28.918 129.888h489.327l-10.32 49.48H39.99L28.165 130.64v-.752h.752zm53.1 225.8L45.867 206.57h455.43L468.832 359.38c-.752 2.187-3.69 2.187-4.442 2.187H90.153c-4.443.068-6.63-2.187-8.133-5.878z"/></svg>