<svg xmlns="http://www.w3.org/2000/svg" viewBox="0 0 611.936 611.936"><path d="M585.744 21.018H26.192C11.692 21.018 0 32.772 0 47.21v58.71c0 14.5 11.754 26.19 26.192 26.19h4.855v425.717c0 17.95 15.204 33.09 33.09 33.09H548.5c17.95 0 33.09-15.203 33.09-33.09V132.112h4.153c14.5 0 26.192-11.755 26.192-26.193V47.273c-.638-14.502-11.69-26.256-26.19-26.256zM228.382 565.365H64.202c-4.15 0-7.6-3.45-7.6-7.602v-81.387h171.78v88.99zm131.088 0h-105.6v-231.13c0-1.404 1.406-2.043 2.045-2.043H356.66c1.404 0 2.043 1.405 2.043 2.044v231.13h.767zm195.93-7.538c0 4.152-3.45 7.602-7.602 7.602h-162.84v-80.75h171.08v73.147h-.638zm0-98.7H384.96v-124.89c0-15.205-12.393-27.6-27.597-27.6H255.98c-15.204 0-27.598 12.394-27.598 27.6v116.65H56.537V246.653s.703 0 .703.703c1.405 1.405 3.45 2.044 5.494 2.747.703 0 1.405.703 1.405.703 2.043.703 4.15 2.044 6.898 2.747h.703c2.045.703 4.153 1.405 6.198 1.405h2.044c2.747 0 4.855.703 7.602.703 2.044 0 4.152 0 6.197-.702 15.205-1.405 28.3-8.944 37.245-19.995 8.944 11.052 22.104 18.654 37.244 19.995 2.043 0 4.15.703 6.196.703s4.152 0 6.197-.702c15.204-1.405 28.3-8.944 37.244-19.995 8.944 11.052 22.104 18.654 37.244 19.995 2.045 0 4.153.703 6.198.703 2.044 0 4.152 0 6.197-.702 15.204-1.405 28.3-8.944 37.244-19.995 8.943 11.052 22.103 18.654 37.243 19.995 2.044 0 4.152.703 6.197.703s4.152 0 6.197-.702c15.204-1.405 28.3-8.944 37.244-19.995 8.945 11.052 22.105 18.654 37.245 19.995 2.044 0 4.152.703 6.197.703 2.044 0 4.152 0 6.197-.702 15.203-1.405 28.3-8.944 37.243-19.995 8.944 11.052 22.104 18.654 37.244 19.995 2.044 0 4.152.703 6.197.703 2.747 0 5.494 0 7.602-.702h2.044c2.747-.703 4.855-.703 7.602-2.044h.703c2.044-.703 4.152-1.405 6.197-2.747.703 0 .703-.703 1.405-.703 2.044-1.405 4.152-2.044 6.197-3.45v213.178h1.66v-.064zM56.537 199.06v-66.247h61.392v66.247c0 12.393-7.603 23.445-18.655 28.3-3.45 1.405-7.602 2.747-11.755 2.747-4.152 0-8.305-.703-11.755-2.747-11.626-4.152-19.228-15.204-19.228-28.3zm86.944 0v-66.247h61.393v66.247c0 12.393-7.602 23.445-18.654 28.3-3.45 1.405-7.603 2.747-11.756 2.747s-8.305-.703-11.755-2.747c-11.626-4.152-19.23-15.204-19.23-28.3zm86.946 0v-66.247h61.392v66.247c0 12.393-7.602 23.445-18.654 28.3-3.45 1.405-7.602 2.747-11.754 2.747-4.152 0-8.305-.703-11.755-2.747-10.924-4.152-19.23-15.204-19.23-28.3zm87.648 0v-66.247h61.392v66.247c0 12.393-7.602 23.445-18.654 28.3-3.45 1.405-7.602 2.747-11.755 2.747s-8.305-.703-11.755-2.747c-11.69-4.152-19.228-15.204-19.228-28.3zm86.88 0v-66.247h61.393v66.247c0 12.393-7.602 23.445-18.654 28.3-3.45 1.405-7.602 2.747-11.754 2.747s-8.306-.703-11.756-2.747c-10.924-4.152-19.23-15.204-19.23-28.3zm87.648 0v-66.247h61.392v66.247c0 12.393-7.602 23.445-18.654 28.3-3.45 1.405-7.602 2.747-11.754 2.747s-8.305-.703-11.755-2.747c-11.625-4.152-19.228-15.204-19.228-28.3zm93.142-93.142c0 .64 0 .64 0 0H26.192l.703-59.347 558.85.704v58.644z"/></svg>