<?xml version="1.0" encoding="iso-8859-1"?><svg xmlns="http://www.w3.org/2000/svg" viewBox="0 0 791.911 791.911"><path d="M585.792 0H207.06c-22.994 0-42.17 19.176-42.17 42.17v707.57c0 22.995 19.176 42.17 42.17 42.17h377.756c22.994 0 42.17-19.175 42.17-42.17V42.17C627.962 18.29 608.786 0 585.792 0zM207.06 35.512h377.756c3.818 0 6.747 2.84 6.747 6.747v59.48H200.4V42.26c0-3.907 2.842-6.748 6.66-6.748zm384.503 101.652V631.93h-388.32V137.165h388.32zm-5.77 619.413H207.06c-3.818 0-6.747-2.84-6.747-6.747v-81.5H592.45v81.5c.09 2.84-2.84 6.747-6.658 6.747zm-171.61-43.147c0 10.565-8.613 19.176-19.177 19.176s-19.176-8.612-19.176-19.176c0-10.565 8.612-19.176 19.176-19.176s19.176 8.612 19.176 19.176z"/></svg>