<svg xmlns="http://www.w3.org/2000/svg" viewBox="0 0 611.815 611.815"><path d="M611.027 234.153c-1.72-5.078-6.718-14.374-22.81-16.874l-179.68-26.172-78.433-158.585c-7.578-15.155-16.874-17.733-24.452-17.733-15.156 0-23.593 15.155-25.31 17.733L201.906 191.11 24.73 216.42c-11.797 1.72-21.094 8.437-23.594 17.733-3.36 10.156.86 20.233 10.937 30.39L138.63 386.88 109.1 561.56c-.86 4.218-3.36 17.732 5.078 27.03 6.718 8.436 18.593 10.155 31.248 4.218 0 0 .86 0 .86-.86l159.444-84.37 159.445 84.37c5.937 3.36 11.796 5.08 16.874 5.08 6.717 0 11.795-2.5 16.014-6.72 3.36-3.358 6.718-10.155 5.078-22.81L472.675 386.88 601.73 261.183c10.938-11.015 10.938-20.233 9.297-27.03zM444.785 370.865c-3.36 3.36-5.078 8.437-4.22 13.515l30.39 175.46-157.804-82.652c-4.218-2.5-10.155-2.5-14.373 0L140.973 559.84l30.39-175.46c.858-5.078-.86-10.156-4.22-13.515L38.947 246.81l176.32-25.312c5.077-.86 9.295-4.22 11.795-8.437l78.434-159.444L383.93 213.06c2.5 4.22 6.717 7.58 11.795 8.438l176.32 25.31-127.26 124.057z"/></svg>