<svg xmlns="http://www.w3.org/2000/svg" viewBox="0 0 611.931 611.931"><path d="M597.85 251.188H489.53c-7.417 0-13.324 5.907-13.324 13.325v281.89H429.5V112.44c0-7.418-5.908-13.325-13.326-13.325H307.1c-7.42 0-13.326 5.907-13.326 13.325v434.72h-46.707V337.252c0-7.418-5.907-13.325-13.325-13.325H124.598c-7.418 0-13.325 5.907-13.325 13.325V547.16H81.6s-5.22 0-8.174-2.954c-3.71-2.953-4.465-9.616-4.465-14.836V56.048c0-7.418-5.906-13.325-13.324-13.325h-42.31C5.905 42.723 0 48.63 0 56.048s5.907 13.325 13.325 13.325h28.917v60.17H13.325C5.907 129.543 0 135.45 0 142.87c0 7.417 5.907 13.324 13.325 13.324h28.917v60.1H13.325C5.907 216.295 0 222.203 0 229.62s5.907 13.325 13.325 13.325h28.917v60.1H13.325C5.907 303.046 0 308.954 0 316.373c0 7.418 5.907 13.325 13.325 13.325h28.917v60.17H13.325C5.907 389.867 0 395.774 0 403.192c0 7.418 5.907 13.325 13.325 13.325h28.917v60.1H13.325C5.907 476.618 0 482.526 0 489.944s5.907 13.325 13.325 13.325h28.917v20.743c0 15.593 4.465 27.476 13.325 35.58 9.616 8.175 20.743 9.617 25.964 9.617h517.077c7.417 0 13.324-5.907 13.324-13.325V265.27c-.685-8.175-6.66-14.082-14.08-14.082zM138.68 547.16V350.578h80.843v195.826H138.68v.756zm182.5 0V125.834h80.844v420.638H321.18v.688zm182.5 0V278.594h80.845V547.16H503.68z"/></svg>