<svg xmlns="http://www.w3.org/2000/svg" viewBox="0 0 611.95 611.95"><path d="M560.348 18.015H474.21c-29.547 0-52.487 23.775-52.487 52.488v2.43l-27.04-27.876c-6.533-6.532-31.98-28.712-76.264-28.712H124.723c-6.532 0-39.347 1.67-62.362 25.446L27.877 77.87C19.673 86.91 0 112.357 0 150.033v156.702c.836 12.306 5.773 22.94 13.976 31.98l22.18 22.94C53.4 379.732 71.4 382.998 82.11 383.834h89.405V569.324c1.67 15.573 13.14 26.283 29.548 26.283h54.918c18.84 0 28.713-15.572 31.144-25.446l31.143-113.178L420.81 350.336c3.267 26.282 25.447 45.955 52.49 45.955h86.136c29.548 0 52.487-23.774 52.487-52.486V73.01c.913-31.144-22.027-54.995-51.575-54.995zm-265.78 419.217c-1.67 1.67-3.266 4.102-4.102 6.532l-31.98 116.52c0 .837-1.67 2.432-1.67 3.267h-54.16V385.58c0-21.344-13.14-31.143-24.61-33.65h-94.34c-4.938 0-15.573-2.43-24.612-12.305l-22.94-22.94c-3.266-3.266-5.773-8.204-5.773-13.14V150.107c0-27.877 15.573-46.79 19.674-51.652l33.65-35.245c14.736-15.57 37.752-16.406 40.182-16.406h193.62c33.65 0 51.65 16.407 54.993 19.673l48.385 50.892v188.68L294.568 437.233zm287.96-95.176c0 12.305-9.875 22.18-22.18 22.18H474.21c-12.304 0-22.18-9.875-22.18-22.18v-29.548-.836l.837-199.316c0-1.67 0-4.102-.836-5.773V71.338c0-12.305 9.876-22.18 22.18-22.18h86.138c12.305 0 22.18 9.875 22.18 22.18v270.718zm-50.057-41.778c0 9.04-7.367 16.407-16.406 16.407s-16.407-7.368-16.407-16.407 7.368-16.407 16.407-16.407 16.407 7.37 16.407 16.408z"/></svg>