<?xml version="1.0" encoding="iso-8859-1"?><svg xmlns="http://www.w3.org/2000/svg" viewBox="0 0 612 612"><path d="M612 336.604c0-30.184-18.865-55.058-45.276-64.91v-92.02c0-15.86-12.856-29.416-29.416-29.416h-38.5v-43.04c0-20.403-16.628-31.722-32.42-31.722H50.59C25.712 75.496 5.31 93.593.767 117 0 120.002 0 123.007 0 126.78c0 3.005 0 5.31.77 7.547V159.2C0 160.74 0 162.206 0 163.744V485.22c0 27.947 22.638 51.284 51.285 51.284h486.72c15.862 0 29.417-12.856 29.417-29.416V401.514c25.713-9.782 44.578-34.726 44.578-64.91zM50.587 103.444H466.39c4.54 0 4.54 1.537 4.54 3.773v43.04H50.588c-1.537 0-3.004 0-4.542-.768-.77 0-.77 0-1.537-.77-.77 0-1.537-.77-2.236-.77-.77 0-.77-.768-1.537-.768-.77 0-1.537-.77-2.236-.77-.77 0-.77-.768-1.538-1.536l-1.537-1.537-1.537-1.538c-.77-.77-.77-.77-.77-1.537-.768-.77-.768-1.537-1.536-2.236l-.77-.77c-.768-.77-.768-1.537-1.536-3.004-.77-1.537-.77-2.236-.77-3.773s-.768-2.236-.768-3.773 0-2.236.77-3.773v-.77c1.676-10.408 10.76-18.723 22.08-18.723zm488.188 404.483c0 .77-.77 1.537-1.537 1.537H50.588c-12.857 0-23.408-10.55-23.408-23.407v-313.93c.77 0 .77 0 1.537.77.77.768 2.236.768 3.004 1.536.77 0 1.538.77 2.237.77.77.768 2.236.768 3.773.768.77 0 1.537 0 2.236.77 1.537 0 2.236.77 3.773.77h493.566c.77 0 1.537.768 1.537 1.536v87.548H470.93c-38.5 0-69.452 30.953-69.452 69.452 0 38.5 30.953 69.452 69.452 69.452h67.915v102.43h-.07zm11.32-130.59c-3.006.77-5.31.77-7.547.77H470.86c-22.638 0-41.503-18.865-41.503-41.503S448.222 295.1 470.86 295.1h71.688c2.236 0 5.31 0 7.546.77 19.634 3.773 33.957 20.402 33.957 40.735s-14.322 36.96-33.956 40.733zm-53.522-40.733c0 8.315-6.777 15.092-15.092 15.092s-15.09-6.777-15.09-15.092c0-8.315 6.776-15.092 15.09-15.092s15.093 6.777 15.093 15.092z"/></svg>