<?xml version="1.0" encoding="iso-8859-1"?><svg xmlns="http://www.w3.org/2000/svg" viewBox="0 0 612.003 612.003"><path d="M307.646 367.13c-49.64 0-90.085 40.447-90.085 90.086s40.447 90.085 90.086 90.085 90.085-40.445 90.085-90.084-40.446-90.085-90.084-90.085zm0 151.958c-34.365 0-61.872-27.506-61.872-61.872s27.506-61.872 61.872-61.872 61.872 27.506 61.872 61.872-28.285 61.872-61.872 61.872zM482.513 370.17c3.818 6.86.778 15.274-6.08 19.093s-15.274.778-19.093-6.08c-28.284-57.277-85.56-93.198-149.694-93.198-64.912 0-124.45 37.406-151.18 96.237-2.262 5.374-7.636 8.415-13.01 8.415-2.263 0-3.818-.778-6.08-1.556-6.86-3.04-9.9-11.454-6.86-19.09 32.103-68.732 101.54-112.29 177.2-112.29 74.812 0 141.987 41.296 174.797 108.47zm67.246-84.78c4.595 6.08 3.04 15.272-3.042 19.87s-15.273 3.04-19.87-3.042C476.43 231.225 394.76 188.445 307.645 188.445c-87.823 0-170.27 42.78-219.91 114.55-3.04 3.82-6.86 6.082-11.455 6.082-3.04 0-5.374-.778-8.415-2.263-6.08-4.596-7.637-13.01-3.818-19.87C119.767 207.536 210.7 160.16 307.645 160.16c95.46 0 186.323 47.377 242.114 125.23zm57.274-59.54c-6.08 5.375-15.273 3.82-19.87-1.555-69.51-83.226-171.827-131.38-280.297-131.38-109.177 0-212.273 48.86-281.782 132.865-3.04 3.04-6.86 5.374-10.677 5.374-3.04 0-6.08-.778-9.192-3.04-6.08-4.597-6.86-13.72-2.263-19.87C77.766 117.38 188.498 64.7 306.16 64.7c116.815 0 226.84 51.195 301.652 141.28 6.08 6.082 5.303 15.275-.778 19.87z"/></svg>