<svg xmlns="http://www.w3.org/2000/svg" viewBox="0 0 611.921 611.921"><path d="M592.65 495.62L458.226 361.196c18.002-34.26 28.233-72.802 28.233-113.883 0-133.63-108.807-243.23-243.23-243.23C109.6 4.084 0 112.89 0 247.314S109.6 489.67 244.102 489.67c44.57 0 86.522-11.974 122.448-33.387L499.307 588.96c12.847 11.976 29.105 18.876 47.107 18.876s34.26-6.82 46.235-19.668c25.694-24.9 25.694-66.854 0-92.55zm-232.127-73.675c-33.388 22.285-73.675 35.132-117.372 35.132-115.547.872-210.634-94.215-210.634-210.714S127.603 34.775 244.102 34.775 455.69 129.862 455.69 246.362c0 39.415-11.104 76.212-29.978 107.935l-.872.872c-16.338 26.567-38.622 49.645-64.317 66.775zm209.842 144.81c-12.847 12.848-36.005 12.848-48.852 0L393.038 438.282c.872 0 .872-.87 1.745-.87 17.13-13.72 33.388-29.978 46.235-47.98l129.347 129.346c13.72 12.848 13.72 34.26 0 47.98zM244.102 101.63c-79.623 0-144.732 65.11-144.732 144.732s65.11 144.732 144.732 144.732 144.732-65.11 144.732-144.732-65.11-144.732-144.732-144.732zm0 258.694c-62.493 0-113.883-50.518-113.883-113.883 0-62.492 50.517-113.882 113.882-113.882 62.493 0 113.883 50.518 113.883 113.883-.873 62.494-51.39 113.884-113.883 113.884z"/></svg>