<?xml version="1.0" encoding="iso-8859-1"?>
<!-- Generator: Adobe Illustrator 18.1.1, SVG Export Plug-In . SVG Version: 6.00 Build 0)  -->
<svg version="1.1" id="Capa_1" xmlns="http://www.w3.org/2000/svg" xmlns:xlink="http://www.w3.org/1999/xlink" x="0px" y="0px"
	 viewBox="0 0 792 792" style="enable-background:new 0 0 792 792;" xml:space="preserve">
<g>
	<path d="M669.458,320.765c-3.893-10.774-14.667-13.671-19.556-15.663h-1.992c-2.897-0.996-4.889-0.996-8.782-0.996
		c-0.996,0-1.992,0-3.893,0H465.12l82.115-262.008l0.996-1.992c5.885-16.658,2.897-28.337-9.778-36.214
		C533.565,0.996,528.676,0,523.787,0c-12.675,0-19.556,8.782-23.449,12.675l-0.996,1.992
		C445.565,73.333,391.787,132,338.009,191.663L245.12,293.333c-38.115,42.008-77.226,84.107-115.342,127.111
		c-6.881,6.881-10.774,20.551-7.786,31.325c3.893,10.774,14.667,14.667,21.547,16.658l1.992,0.996
		c2.897,0.996,4.889,0.996,8.782,0.996c0.996,0,1.992,0,4.889,0h155.449l-62.56,242.453c-3.893,14.667-7.786,31.325-11.77,46.897
		c-1.992,10.774,4.889,23.449,12.675,28.337c3.893,1.992,7.786,3.893,12.675,3.893l0,0c3.893,0,8.782-0.996,12.675-2.897
		c6.881-1.992,9.778-6.881,12.675-10.774L620.569,402.88c14.667-16.658,29.333-33.226,43.004-49.885
		C669.458,344.214,673.351,331.539,669.458,320.765z M593.137,377.44L283.236,730.436c0.996-3.893,1.992-6.881,2.897-10.774
		l62.56-243.449c3.893-15.663,0-25.44-4.889-31.325c-5.885-7.786-15.663-12.675-27.342-13.671h-150.56
		c35.218-38.115,70.436-76.23,104.658-115.342l92.889-101.671c45.901-50.881,92.798-101.761,138.79-151.556l-74.329,238.56
		c0,0,0,0.996,0,1.992c-1.992,9.778,0,18.56,4.889,26.436c3.893,4.889,11.77,10.774,26.436,10.774h166.222
		C614.684,352.996,603.911,364.765,593.137,377.44z"/>
</g>
<g>
</g>
<g>
</g>
<g>
</g>
<g>
</g>
<g>
</g>
<g>
</g>
<g>
</g>
<g>
</g>
<g>
</g>
<g>
</g>
<g>
</g>
<g>
</g>
<g>
</g>
<g>
</g>
<g>
</g>
</svg>
