<?xml version="1.0" encoding="iso-8859-1"?>
<!-- Generator: Adobe Illustrator 18.1.1, SVG Export Plug-In . SVG Version: 6.00 Build 0)  -->
<svg version="1.1" id="Capa_1" xmlns="http://www.w3.org/2000/svg" xmlns:xlink="http://www.w3.org/1999/xlink" x="0px" y="0px"
	 viewBox="0 0 612.025 612.025" style="enable-background:new 0 0 612.025 612.025;" xml:space="preserve">
<g>
	<path d="M501.38,196.508c2.23,3.764,47.399,85.805,0.767,182.903c-2.23,5.297-7.528,7.528-12.826,7.528
		c-2.23,0-3.764-0.767-5.995-1.533c-6.761-2.997-9.759-12.059-6.761-18.82c40.637-83.575,2.23-154.324,0.767-157.322
		c-3.764-6.761-1.533-15.056,5.297-18.82C489.391,187.446,497.616,189.677,501.38,196.508z M573.663,124.992
		c-3.764-6.761-12.059-9.062-18.82-5.298c-6.761,3.764-9.061,12.059-5.297,18.82c0.767,1.533,77.511,139.268-0.767,299.587
		c-2.997,6.761-0.767,15.056,6.761,18.82c2.23,0.767,3.764,1.533,5.995,1.533c5.297,0,9.759-2.997,12.826-7.528
		C658.005,277.782,576.66,130.986,573.663,124.992z M413.344,88.815v404.979v0.767c-0.767,14.289-10.525,20.354-19.587,20.354
		c-5.995,0-12.059-2.997-19.587-8.295l-116.684-93.333h-45.935v89.569c0,25.581-20.354,45.935-45.935,45.935h-40.637
		c-25.581,0-45.935-20.354-45.935-45.935v-89.569H45.168C20.354,413.287,0,392.933,0,368.119V204.733
		c0-24.815,20.354-45.168,45.168-45.168h213.015l112.92-91.103c0.767-0.767,2.23-1.533,2.997-2.231
		c1.533-0.767,8.295-2.997,15.056-2.997C403.516,63.234,413.344,73.759,413.344,88.815z M44.471,385.405h48.165h104.626h51.163
		V187.446H44.471c-9.062,0-17.287,7.528-17.287,17.287v163.386C27.882,377.877,35.41,385.405,44.471,385.405z M183.739,413.287
		h-76.814v89.569c0,9.759,8.295,18.053,18.053,18.053h40.637c9.759,0,18.053-8.295,18.053-18.053v-89.569H183.739z M385.462,92.579
		l-109.156,87.339v212.318l109.156,87.339V92.579z"/>
</g>
<g>
</g>
<g>
</g>
<g>
</g>
<g>
</g>
<g>
</g>
<g>
</g>
<g>
</g>
<g>
</g>
<g>
</g>
<g>
</g>
<g>
</g>
<g>
</g>
<g>
</g>
<g>
</g>
<g>
</g>
</svg>
