<?xml version="1.0" encoding="iso-8859-1"?>
<!-- Generator: Adobe Illustrator 18.1.1, SVG Export Plug-In . SVG Version: 6.00 Build 0)  -->
<svg version="1.1" id="Capa_1" xmlns="http://www.w3.org/2000/svg" xmlns:xlink="http://www.w3.org/1999/xlink" x="0px" y="0px"
	 viewBox="0 0 612.074 612.074" style="enable-background:new 0 0 612.074 612.074;" xml:space="preserve">
<g>
	<path d="M306.037,0C136.997,0,0,136.997,0,306.037s136.997,306.037,306.037,306.037s306.037-136.997,306.037-306.037
		S475.077,0,306.037,0z M306.037,583.147c-152.203,0-276.368-124.165-276.368-276.368S153.835,30.411,306.037,30.411
		s276.368,124.165,276.368,276.368S459.056,583.147,306.037,583.147z M454.234,286.752l-105.77-98.502
		c-4.821-4.821-9.642-6.379-15.205-6.379c-4.821,0-20.027,2.374-20.027,28.037V266.8l-83.296-77.733
		c-4.821-4.821-9.642-6.379-15.205-6.379c-4.821,0-20.027,2.374-20.027,28.037v192.256c0,26.406,16.021,28.037,20.843,28.037
		c5.637,0,11.2-2.374,16.021-7.195l82.48-76.917v56.075c0,26.405,16.021,28.037,20.843,28.037c5.637,0,11.2-2.374,16.021-7.195
		l100.949-93.754c16.837-15.205,12.832-32.043,4.821-41.685C455.05,287.568,454.234,286.752,454.234,286.752z M310.858,308.411
		l-87.376,80.923v-165.85l88.933,82.48C312.416,306.779,311.6,307.595,310.858,308.411z M430.202,308.411l-87.301,80.923v-165.85
		l88.933,82.48C431.76,306.779,431.018,307.595,430.202,308.411z"/>
</g>
<g>
</g>
<g>
</g>
<g>
</g>
<g>
</g>
<g>
</g>
<g>
</g>
<g>
</g>
<g>
</g>
<g>
</g>
<g>
</g>
<g>
</g>
<g>
</g>
<g>
</g>
<g>
</g>
<g>
</g>
</svg>
