<?xml version="1.0" encoding="iso-8859-1"?>
<!-- Generator: Adobe Illustrator 18.1.1, SVG Export Plug-In . SVG Version: 6.00 Build 0)  -->
<svg version="1.1" id="Capa_1" xmlns="http://www.w3.org/2000/svg" xmlns:xlink="http://www.w3.org/1999/xlink" x="0px" y="0px"
	 viewBox="0 0 612 612" style="enable-background:new 0 0 612 612;" xml:space="preserve">
<g>
	<path d="M554.993,136.898H202.744c0-0.754,0-1.507,0-2.193v-27.407c0-16.307-13.292-29.6-29.6-29.6H71.738
		c-16.307,0-29.6,13.292-29.6,29.6v27.407c0,1.507,0,2.946,0.754,3.7C18.5,144.298,0,166.498,0,192.398v285.65
		c0,31.107,25.146,56.253,56.253,56.253h499.494c31.107,0,56.253-25.146,56.253-56.253v-285.65
		C611.178,161.359,586.032,136.898,554.993,136.898z M69.545,106.614c0-1.507,0.754-2.193,2.193-2.193h101.406
		c1.507,0,2.193,0.754,2.193,2.193v27.407c0,1.507-0.754,2.193-2.193,2.193H71.738c-1.507,0-2.193-0.754-2.193-2.193V106.614z
		 M56.185,163.552h16.307h101.406h381.781c15.553,0,28.846,12.607,28.846,28.846v133.198H437.28
		c-6.646-65.845-62.899-117.645-130.252-117.645s-123.606,51.799-130.252,117.645H27.339V192.398
		C27.339,176.913,39.946,163.552,56.185,163.552z M410.695,339.711c0,57.007-46.592,103.599-103.599,103.599
		s-103.599-46.661-103.599-103.599s46.592-103.599,103.599-103.599C364.035,235.358,410.695,281.95,410.695,339.711z
		 M554.993,506.894H56.185c-15.554,0-28.846-12.607-28.846-28.846V353.003H176.09c6.646,65.845,62.899,117.645,130.252,117.645
		c67.353,0,123.606-51.799,130.252-117.645h146.491v125.045C583.839,494.355,571.232,506.894,554.993,506.894z M307.096,273.111
		c-36.246,0-65.846,29.6-65.846,65.845s29.6,65.845,65.846,65.845s65.846-29.6,65.846-65.845S343.342,273.111,307.096,273.111z
		 M307.096,378.149c-21.446,0-38.507-16.992-38.507-38.507c0-21.515,16.992-38.507,38.507-38.507
		c21.515,0,38.507,16.992,38.507,38.507C345.535,361.157,327.789,378.149,307.096,378.149z M517.994,216.105
		c0-8.154,6.646-14.8,14.8-14.8c8.154,0,14.8,6.646,14.8,14.8c0,8.154-6.646,14.8-14.8,14.8
		C524.64,231.658,517.994,225.012,517.994,216.105z M463.18,216.105c0-8.154,6.646-14.8,14.8-14.8s14.8,6.646,14.8,14.8
		c0,8.154-6.646,14.8-14.8,14.8C469.894,231.658,463.18,225.012,463.18,216.105z"/>
</g>
<g>
</g>
<g>
</g>
<g>
</g>
<g>
</g>
<g>
</g>
<g>
</g>
<g>
</g>
<g>
</g>
<g>
</g>
<g>
</g>
<g>
</g>
<g>
</g>
<g>
</g>
<g>
</g>
<g>
</g>
</svg>
