<?xml version="1.0" encoding="iso-8859-1"?>
<!-- Generator: Adobe Illustrator 18.1.1, SVG Export Plug-In . SVG Version: 6.00 Build 0)  -->
<svg version="1.1" id="Capa_1" xmlns="http://www.w3.org/2000/svg" xmlns:xlink="http://www.w3.org/1999/xlink" x="0px" y="0px"
	 viewBox="0 0 612.04 612.04" style="enable-background:new 0 0 612.04 612.04;" xml:space="preserve">
<g>
	<path d="M582.554,435.982c27.586-59.231,37.357-127.481,22.7-195.657C575.188,100.667,449.36,0.02,306.545,0.02
		c-21.948,0-43.822,2.405-65.77,7.291C161.25,24.374,92.999,72.255,48.351,141.257C4.529,210.259-10.128,291.438,6.934,371.79
		c9.772,46.302,30.818,88.47,59.231,124.174c0.827,0.827,0.827,1.654,1.654,2.405c0.827,0.827,1.654,1.654,2.405,2.405
		C127.049,568.95,212.287,612.02,304.816,612.02c21.948,0,43.822-2.405,65.77-7.291c47.054-10.523,89.297-30.818,125.001-59.231
		c0,0,0,0,0.827,0l0.827-0.827c35.704-28.413,64.116-64.943,84.411-106.36c0,0,0-0.827,0.827-0.827
		C581.727,436.809,582.554,435.982,582.554,435.982z M575.188,246.038c12.177,56.825,6.464,113.651-14.582,164.012L321.127,295.572
		L320.301,29.26C442.896,36.626,549.256,125.096,575.188,246.038z M74.358,155.914C114.121,94.203,175.005,51.208,247.239,35.799
		c14.582-3.232,28.413-4.886,42.995-5.713l0.827,267.891L82.476,466.875c-21.948-30.066-38.184-64.943-46.302-102.301
		C20.765,292.34,34.595,218.452,74.358,155.914z M364.949,574.813c-19.468,4.059-38.936,6.464-59.231,6.464
		c-79.525,0-152.587-34.877-203.775-90.951l202.121-163.185l162.358,203.774C436.432,551.286,402.306,566.695,364.949,574.813z
		 M489.198,511.523L358.485,346.76l189.944,90.124C533.02,465.221,512.725,490.402,489.198,511.523z"/>
</g>
<g>
</g>
<g>
</g>
<g>
</g>
<g>
</g>
<g>
</g>
<g>
</g>
<g>
</g>
<g>
</g>
<g>
</g>
<g>
</g>
<g>
</g>
<g>
</g>
<g>
</g>
<g>
</g>
<g>
</g>
</svg>
