<?xml version="1.0" encoding="iso-8859-1"?>
<!-- Generator: Adobe Illustrator 18.1.1, SVG Export Plug-In . SVG Version: 6.00 Build 0)  -->
<svg version="1.1" id="Capa_1" xmlns="http://www.w3.org/2000/svg" xmlns:xlink="http://www.w3.org/1999/xlink" x="0px" y="0px"
	 viewBox="0 0 792.092 792.092" style="enable-background:new 0 0 792.092 792.092;" xml:space="preserve">
<g>
	<path d="M660.458,335.592c-1.008-23.742-16.867-49.5-54.45-49.5h-48.492V154.458C557.517,69.3,488.217,0,403.058,0h-14.85
		C303.05,0,233.75,69.3,233.75,154.458v131.633h-56.467c-31.717,0-46.567,23.742-46.567,46.567v24.75
		c0,140.617,110.917,255.383,249.517,263.358v36.667H261.525c-22.733,0-40.608,17.783-40.608,40.608v53.442
		c0,22.733,17.783,40.608,40.608,40.608h272.25c22.733,0,40.608-17.783,40.608-40.608V699.05c0-22.733-18.792-40.608-40.608-40.608
		H415.892v-37.583c136.583-8.892,245.483-123.75,245.483-262.35V337.7C660.458,336.6,660.458,335.592,660.458,335.592z
		 M536.708,698.958v52.433c0,2.017-2.017,3.942-3.942,3.942h-272.25c-2.017,0-3.942-2.017-3.942-3.942v-52.433
		c0-2.017,2.017-3.942,3.942-3.942h272.25C534.692,694.925,536.708,695.933,536.708,698.958z M387.2,36.575h14.85
		c65.358,0,117.792,53.442,117.792,117.792v149.508v72.233c0,65.358-53.442,117.792-117.792,117.792H387.2
		c-65.358,0-117.792-53.442-117.792-117.792v-54.45h125.767c9.9,0,17.783-7.883,17.783-17.783s-7.883-17.783-17.783-17.783H269.408
		v-54.45h125.767c9.9,0,17.783-7.883,17.783-17.783s-7.883-17.783-17.783-17.783H269.408v-40.608c0-4.95,0-8.892,1.008-12.833
		h124.758c9.9,0,17.783-7.883,17.783-17.783s-7.883-17.783-17.783-17.783H280.317C299.108,64.35,340.725,36.575,387.2,36.575z
		 M623.792,357.408c0,124.758-101.933,226.692-226.692,226.692h-3.942c-124.758,0-226.692-101.933-226.692-226.692v-24.75
		c0-9.9,5.958-9.9,9.9-9.9h56.467v54.45c0,85.158,69.3,154.458,154.458,154.458h14.85c85.158,0,154.458-69.3,154.458-154.458v-54.45
		h49.5c11.917,0,16.867,3.942,17.783,13.842v20.808H623.792z"/>
</g>
<g>
</g>
<g>
</g>
<g>
</g>
<g>
</g>
<g>
</g>
<g>
</g>
<g>
</g>
<g>
</g>
<g>
</g>
<g>
</g>
<g>
</g>
<g>
</g>
<g>
</g>
<g>
</g>
<g>
</g>
</svg>
