<?xml version="1.0" encoding="iso-8859-1"?>
<!-- Generator: Adobe Illustrator 18.1.1, SVG Export Plug-In . SVG Version: 6.00 Build 0)  -->
<svg version="1.1" id="Capa_1" xmlns="http://www.w3.org/2000/svg" xmlns:xlink="http://www.w3.org/1999/xlink" x="0px" y="0px"
	 viewBox="0 0 611.936 611.936" style="enable-background:new 0 0 611.936 611.936;" xml:space="preserve">
<g>
	<path d="M585.744,21.018H26.192C11.691,21.018,0,32.772,0,47.21v58.709c0,14.501,11.754,26.192,26.192,26.192h4.855v66.949l0,0
		v358.767c0,17.951,15.204,33.091,33.091,33.091h177.339h131.088H548.5c17.951,0,33.091-15.204,33.091-33.091V178.362v-2.811v-43.44
		h4.152c14.501,0,26.192-11.754,26.192-26.192V47.274C611.297,32.772,600.245,21.018,585.744,21.018z M228.382,565.365H64.203
		c-4.152,0-7.602-3.45-7.602-7.602v-81.387h171.782V565.365L228.382,565.365z M359.47,565.365H253.871V334.236
		c0-1.405,1.405-2.044,2.044-2.044h100.744c1.405,0,2.044,1.405,2.044,2.044v231.129H359.47z M555.4,557.827
		c0,4.152-3.45,7.602-7.602,7.602H384.959v-80.748h171.079v73.146H555.4z M555.4,459.128h-170.44V334.236
		c0-15.204-12.393-27.598-27.597-27.598H255.98c-15.204,0-27.598,12.393-27.598,27.598v116.651H56.537V246.653
		c0,0,0.703,0,0.703,0.703c1.405,1.405,3.45,2.044,5.494,2.747c0.703,0,1.405,0.703,1.405,0.703
		c2.044,0.703,4.152,2.044,6.899,2.747h0.703c2.044,0.703,4.152,1.405,6.197,1.405c0.703,0,1.405,0,2.044,0
		c2.747,0,4.855,0.703,7.602,0.703c2.044,0,4.152,0,6.197-0.703c15.204-1.405,28.3-8.944,37.244-19.995
		c8.944,11.052,22.104,18.654,37.244,19.995c2.044,0,4.152,0.703,6.197,0.703s4.152,0,6.197-0.703
		c15.204-1.405,28.3-8.944,37.244-19.995c8.944,11.052,22.104,18.654,37.244,19.995c2.044,0,4.152,0.703,6.197,0.703
		c2.044,0,4.152,0,6.197-0.703c15.204-1.405,28.3-8.944,37.244-19.995c8.944,11.052,22.104,18.654,37.244,19.995
		c2.044,0,4.152,0.703,6.197,0.703s4.152,0,6.197-0.703c15.204-1.405,28.3-8.944,37.244-19.995
		c8.944,11.052,22.104,18.654,37.244,19.995c2.044,0,4.152,0.703,6.197,0.703c2.044,0,4.152,0,6.197-0.703
		c15.204-1.405,28.3-8.944,37.244-19.995c8.944,11.052,22.104,18.654,37.244,19.995c2.044,0,4.152,0.703,6.197,0.703
		c2.747,0,5.494,0,7.602-0.703c0.703,0,1.405,0,2.044,0c2.747-0.703,4.855-0.703,7.602-2.044h0.703
		c2.044-0.703,4.152-1.405,6.197-2.747c0.703,0,0.703-0.703,1.405-0.703c2.044-1.405,4.152-2.044,6.197-3.45l0,0v213.178h1.661
		V459.128z M56.537,199.06v-66.247h61.392v66.247c0,12.393-7.602,23.445-18.654,28.3c-3.45,1.405-7.602,2.747-11.755,2.747
		c-4.152,0-8.305-0.703-11.755-2.747C64.139,223.208,56.537,212.156,56.537,199.06z M143.481,199.06v-66.247h61.392v66.247
		c0,12.393-7.602,23.445-18.654,28.3c-3.45,1.405-7.602,2.747-11.755,2.747s-8.305-0.703-11.755-2.747
		C151.084,223.208,143.481,212.156,143.481,199.06z M230.426,199.06v-66.247h61.392v66.247c0,12.393-7.602,23.445-18.654,28.3
		c-3.45,1.405-7.602,2.747-11.754,2.747c-4.152,0-8.305-0.703-11.755-2.747C238.731,223.208,230.426,212.156,230.426,199.06z
		 M318.074,199.06v-66.247h61.392v66.247c0,12.393-7.602,23.445-18.654,28.3c-3.45,1.405-7.602,2.747-11.755,2.747
		s-8.305-0.703-11.755-2.747C325.612,223.208,318.074,212.156,318.074,199.06z M404.955,199.06v-66.247h61.392v66.247
		c0,12.393-7.602,23.445-18.654,28.3c-3.45,1.405-7.602,2.747-11.754,2.747s-8.305-0.703-11.755-2.747
		C413.26,223.208,404.955,212.156,404.955,199.06z M492.602,199.06v-66.247h61.392v35.2v31.047c0,12.393-7.602,23.445-18.654,28.3
		c-3.45,1.405-7.602,2.747-11.754,2.747s-8.305-0.703-11.755-2.747C500.205,223.208,492.602,212.156,492.602,199.06z
		 M585.744,105.918C585.744,106.557,585.744,106.557,585.744,105.918H26.192l0.703-59.347l558.849,0.703V105.918z"/>
</g>
<g>
</g>
<g>
</g>
<g>
</g>
<g>
</g>
<g>
</g>
<g>
</g>
<g>
</g>
<g>
</g>
<g>
</g>
<g>
</g>
<g>
</g>
<g>
</g>
<g>
</g>
<g>
</g>
<g>
</g>
</svg>
