<svg id="" viewBox="0 0 15 17" style="background-color:#ffffff00" version="1.1"
	xmlns="http://www.w3.org/2000/svg" xmlns:xlink="http://www.w3.org/1999/xlink" xml:space="preserve"
	x="0px" y="0px" width="100%" height="100%"
>
	<path d="M 6 6 L 5 6 L 5 13 L 6 13 L 6 6 ZM 8 6 L 7 6 L 7 13 L 8 13 L 8 6 ZM 10 6 L 9 6 L 9 13 L 10 13 L 10 6 ZM 12 15 L 3 15 L 3 4 L 1 4 L 1 17 L 14 17 L 14 4 L 12 4 L 12 15 ZM 10.3391 1 C 9.7428 1 9.2594 0.601 9.2594 0 L 5.7406 0 C 5.7406 0.6011 5.2573 1 4.6609 1 L 0 1 L 0 3 L 15 3 L 15 1 L 10.3391 1 Z" fill="#263116"/>
</svg>