<svg id="test" viewBox="0 0 17 16" version="1.1"
	xmlns="http://www.w3.org/2000/svg" xmlns:xlink="http://www.w3.org/1999/xlink" xml:space="preserve"
	x="0px" y="0px" width="100%" height="100%"
>
	<path d="M 8.4999 16 C 2.2146 9.9996 0.4478 7.7924 0.0651 5.5298 C -0.4031 2.7617 1.6975 0 4.9706 0 C 6.3734 0 7.6482 0.5286 8.4999 1.4114 C 9.3517 0.5286 10.6263 0 12.0289 0 C 15.2877 0 17.4052 2.7479 16.9347 5.5298 C 16.5603 7.7433 14.91 9.8804 8.4999 16 ZM 4.9706 1.6241 C 3.649 1.6241 2.5348 2.2767 1.9902 3.3698 C 0.5955 6.1688 3.7366 9.0113 8.4999 13.6931 C 13.2814 8.9936 16.401 6.1624 15.0095 3.3698 C 14.4648 2.2767 13.3507 1.6241 12.0289 1.6241 C 9.8992 1.6241 8.9912 3.2691 8.4999 4.046 C 8.0383 3.3163 7.2085 1.6241 4.9706 1.6241 Z" fill="#263116"/>
</svg>