<?xml version="1.0" standalone="no"?>
<!-- Generator: Adobe Fireworks 10, Export SVG Extension by Aaron Beall (http://fireworks.abeall.com) . Version: 0.6.0  -->
<!DOCTYPE svg PUBLIC "-//W3C//DTD SVG 1.1//EN" "http://www.w3.org/Graphics/SVG/1.1/DTD/svg11.dtd">
<svg id="" viewBox="0 0 9 20" style="background-color:#ffffff00" version="1.1"
	xmlns="http://www.w3.org/2000/svg" xmlns:xlink="http://www.w3.org/1999/xlink" xml:space="preserve"
	x="0px" y="0px" width="100%" height="100%"
>
	<path d="M 1.9132 6.6666 L -0.1667 6.6666 L -0.1667 10 L 1.5 10 L 1.5 20 L 5.6667 20 L 5.6667 10 L 9 10 L 9 6.6666 L 5.9127 6.6666 C 5.9127 6.6666 5.4961 5.406 5.4961 4.7437 C 5.4961 3.9476 6.0718 3.5043 6.8356 3.5043 C 7.451 3.5043 9 3.5043 9 3.5043 L 9 0 C 9 0 6.7186 0 6.2308 0 C 3.2549 0 1.4965 1.4476 1.4965 3.9744 C 1.4965 6.1752 1.9132 6.6666 1.9132 6.6666 Z" fill="#666666"/>
</svg>