<?xml version="1.0" standalone="no"?>
<!-- Generator: Adobe Fireworks 10, Export SVG Extension by Aaron Beall (http://fireworks.abeall.com) . Version: 0.6.0  -->
<!DOCTYPE svg PUBLIC "-//W3C//DTD SVG 1.1//EN" "http://www.w3.org/Graphics/SVG/1.1/DTD/svg11.dtd">
<svg id="" viewBox="0 0 20 20" style="background-color:#ffffff00" version="1.1"
	xmlns="http://www.w3.org/2000/svg" xmlns:xlink="http://www.w3.org/1999/xlink" xml:space="preserve"
	x="0px" y="0px" width="100%" height="100%"
>
	<path d="M 20 4.3254 L 17.3484 4.3254 L 17.3484 7.0288 L 16.0228 7.0288 L 16.0228 4.3254 L 13.3712 4.3254 L 13.3712 2.9738 L 16.0228 2.9738 L 16.0228 0.2704 L 17.3484 0.2704 L 17.3484 2.9738 L 20 2.9738 L 20 4.3254 ZM 12.5041 15.5066 C 12.5041 17.5331 10.6893 20 6.1238 20 C 2.7847 20 0 18.5316 0 16.0618 C 0 14.1556 1.1837 11.6812 6.7147 11.6812 C 5.8934 10.9985 5.6917 10.0441 6.1937 9.0105 C 2.9551 9.0105 1.2966 7.0693 1.2966 4.6044 C 1.2966 2.1926 3.056 0 6.6438 0 C 7.5496 0 12.3912 0 12.3912 0 L 11.107 1.3744 L 9.5982 1.3744 C 10.6627 1.9961 11.2286 3.2766 11.2286 4.688 C 11.2286 5.9835 10.529 7.0327 9.5305 7.8198 C 7.7584 9.2166 8.2121 9.9966 10.0685 11.3771 C 11.899 12.7753 12.5041 13.8546 12.5041 15.5066 ZM 8.9193 4.7761 C 8.6522 2.7021 7.3268 1.0006 5.7784 0.953 C 4.2293 0.906 3.1905 2.4933 3.4581 4.5679 C 3.7255 6.6418 5.1976 8.0907 6.7468 8.1382 C 8.2953 8.1852 9.1865 6.8503 8.9193 4.7761 ZM 10.5161 15.7146 C 10.5161 14.0088 8.9899 12.3829 6.429 12.3829 C 4.1213 12.3571 2.1654 13.8698 2.1654 15.6233 C 2.1654 17.4126 3.8322 18.9022 6.1401 18.9022 C 9.0907 18.9022 10.5161 17.5039 10.5161 15.7146 Z" fill="#666666"/>
</svg>