<svg id="" viewBox="0 0 18 18" style="background-color:#ffffff00" version="1.1"
	xmlns="http://www.w3.org/2000/svg" xmlns:xlink="http://www.w3.org/1999/xlink" xml:space="preserve"
	x="0px" y="0px" width="100%" height="100%"
>
	<path d="M 9.0951 4.5819 L 9.0951 9.0055 L 13.0389 9.0055 L 13.0389 10.7749 L 7.3293 10.7749 L 7.3293 4.5819 L 9.0951 4.5819 ZM 8.5181 0 C 6.067 0 3.6713 0.9841 2.0507 2.5791 L 0.5043 1.0296 L -0.5 6.5422 L 5.0016 5.5359 L 3.438 3.9693 C 4.7036 2.7301 6.6088 1.966 8.5181 1.966 C 12.395 1.966 15.538 5.1152 15.538 9 C 15.538 12.8848 12.395 16.034 8.5181 16.034 C 4.6522 16.034 1.5165 12.9027 1.4987 9.0333 L -0.4545 9.4029 C -0.244 14.1864 3.6923 18 8.5181 18 C 13.4786 18 17.5 13.9706 17.5 9 C 17.5 4.0294 13.4786 0 8.5181 0 Z" fill="#263113"/>
</svg>