<?xml version="1.0" standalone="no"?>
<!-- Generator: Adobe Fireworks 10, Export SVG Extension by Aaron Beall (http://fireworks.abeall.com) . Version: 0.6.0  -->
<!DOCTYPE svg PUBLIC "-//W3C//DTD SVG 1.1//EN" "http://www.w3.org/Graphics/SVG/1.1/DTD/svg11.dtd">
<svg id="" viewBox="0 0 20 16" style="background-color:#ffffff00" version="1.1"
	xmlns="http://www.w3.org/2000/svg" xmlns:xlink="http://www.w3.org/1999/xlink" xml:space="preserve"
	x="0px" y="0px" width="100%" height="100%"
>
	<g id="Layer%201">
		<path d="M 20 1.9575 C 19.2641 2.2755 18.4733 2.4905 17.6434 2.587 C 18.4904 2.0923 19.1411 1.309 19.4474 0.3756 C 18.6546 0.8336 17.7765 1.1663 16.8419 1.3456 C 16.0934 0.5686 15.027 0.0834 13.8469 0.0834 C 11.1982 0.0834 9.2512 2.4911 9.8497 4.9912 C 6.4396 4.8246 3.4161 3.2333 1.3924 0.8151 C 0.3176 2.6112 0.8348 4.9619 2.6622 6.1515 C 1.9896 6.1307 1.3568 5.951 0.8037 5.6515 C 0.7592 7.5034 2.1214 9.2351 4.0947 9.6213 C 3.5173 9.7744 2.8847 9.8094 2.2418 9.6897 C 2.7639 11.2778 4.2793 12.4333 6.0748 12.4656 C 4.3498 13.7825 2.1771 14.3707 0 14.1208 C 1.8158 15.2549 3.9727 15.9166 6.2899 15.9166 C 13.908 15.9166 18.2119 9.6484 17.9525 4.0267 C 18.7544 3.4631 19.4499 2.7592 20 1.9575 Z" fill="#666666"/>
	</g>
</svg>